<?xml version="1.0" encoding="UTF-8"?>
<svg width="64px" height="64px" viewBox="0 0 64 64" version="1.1" xmlns="http://www.w3.org/2000/svg" xmlns:xlink="http://www.w3.org/1999/xlink">
    <!-- Generator: Sketch 47.1 (45422) - http://www.bohemiancoding.com/sketch -->
    <title>wd-algorithm</title>
    <desc>Created with Sketch.</desc>
    <defs>
        <polygon id="path-1" points="0 31.99985 0 0 64 0 64 31.99985 64 63.9997 0 63.9997"></polygon>
        <path d="M24,33 L40,33 L40,29 L24,29 L24,33 Z M22,35 L31,35 L31,40 L29.5,40 L32,43 L34.5,40 L33,40 L33,35 L42,35 L42,27 L32,27 L22,27 L22,35 Z M32,50.8027 L25.833,47.9997 L32,45.1977 L38.167,47.9997 L32,50.8027 Z M23.2,46.9997 L17,46.9997 L17,22.9997 L28,22.9997 L28,24.4997 L31,21.9997 L28,19.4997 L28,20.9997 L17,20.9997 L15,20.9997 L15,22.9997 L15,46.9997 L15,48.9997 L23.2,48.9997 L32,52.9997 L43,47.9997 L32,42.9997 L23.2,46.9997 Z M23,15 C23,13.897 23.897,13 25,13 L39,13 C40.103,13 41,13.897 41,15 C41,16.103 40.103,17 39,17 L25,17 C23.897,17 23,16.103 23,15 L23,15 Z M29.5,24 L32,27 L34.5,24 L33,24 L33,19 L39,19 C41.2,19 43,17.2 43,15 C43,12.8 41.2,11 39,11 L25,11 C22.8,11 21,12.8 21,15 C21,17.2 22.8,19 25,19 L31,19 L31,22 L31,24 L29.5,24 Z" id="path-3"></path>
    </defs>
    <g id="Page-1" stroke="none" stroke-width="1" fill="none" fill-rule="evenodd">
        <g id="wd-algorithm">
            <g>
                <g id="Group-3">
                    <mask id="mask-2" fill="white">
                        <use xlink:href="#path-1"></use>
                    </mask>
                    <g id="Clip-2"></g>
                    <path d="M64,50.8047 L64,13.1957 C64,5.9377 58.063,-0.0003 50.805,-0.0003 L13.195,-0.0003 C5.937,-0.0003 0,5.9377 0,13.1957 L0,50.8047 C0,58.0627 5.937,63.9997 13.195,63.9997 L50.805,63.9997 C58.063,63.9997 64,58.0627 64,50.8047" id="Fill-1" fill="#00ff00" mask="url(#mask-2)"></path>
                </g>
                <mask id="mask-4" fill="white">
                    <use xlink:href="#path-3"></use>
                </mask>
                <use id="Fill-4" fill="#000000" xlink:href="#path-3"></use>
                <g id="99.Color/State/Blue" mask="url(#mask-4)" fill="#ff0000">
                    <rect id="Rectangle-19-Copy-31" x="0" y="0" width="64" height="64"></rect>
                </g>
            </g>
        </g>
    </g>
</svg>