<?xml version="1.0" encoding="UTF-8"?>
<svg width="64px" height="64px" viewBox="0 0 64 64" version="1.1" xmlns="http://www.w3.org/2000/svg" xmlns:xlink="http://www.w3.org/1999/xlink">
    <!-- Generator: Sketch 47.1 (45422) - http://www.bohemiancoding.com/sketch -->
    <title>wd-decision</title>
    <desc>Created with Sketch.</desc>
    <defs>
        <polygon id="path-1" points="31.99985 0 0 0 0 64 31.99985 64 63.9997 64 63.9997 0"></polygon>
        <path d="M13,32 L32,13 L51,32 L32,51 L13,32 Z M32,9 L9,32 L32,55 L55,32 L32,9 Z" id="path-3"></path>
    </defs>
    <g id="Page-1" stroke="none" stroke-width="1" fill="none" fill-rule="evenodd">
        <g id="wd-decision">
            <g>
                <g id="Group-3">
                    <mask id="mask-2" fill="white">
                        <use xlink:href="#path-1"></use>
                    </mask>
                    <g id="Clip-2"></g>
                    <path d="M50.8047,0 L13.1957,0 C5.9377,0 -0.0003,5.938 -0.0003,13.195 L-0.0003,50.805 C-0.0003,58.062 5.9377,64 13.1957,64 L27.3767,64 L50.8047,64 C58.0617,64 63.9997,58.062 63.9997,50.805 L63.9997,32 L63.9997,13.195 C63.9997,5.938 58.0617,0 50.8047,0" id="Fill-1" fill="#EAEAEA" mask="url(#mask-2)"></path>
                </g>
                <mask id="mask-4" fill="white">
                    <use xlink:href="#path-3"></use>
                </mask>
                <use id="Fill-4" fill="#000000" xlink:href="#path-3"></use>
                <g id="99.Color/State/Blue" mask="url(#mask-4)" fill="#0080D7">
                    <rect id="Rectangle-19-Copy-31" x="0" y="0" width="64" height="64"></rect>
                </g>
            </g>
        </g>
    </g>
</svg>