<?xml version="1.0" encoding="UTF-8"?>
<svg width="64px" height="64px" viewBox="0 0 64 64" version="1.1" xmlns="http://www.w3.org/2000/svg" xmlns:xlink="http://www.w3.org/1999/xlink">
    <!-- Generator: Sketch 47.1 (45422) - http://www.bohemiancoding.com/sketch -->
    <title>wd-dist-cp</title>
    <desc>Created with Sketch.</desc>
    <defs>
        <polygon id="path-1" points="0 31.99985 0 0 64 0 64 31.99985 64 63.9997 0 63.9997"></polygon>
        <path d="M48,33.7178 L48,37.2428 C47.585,37.6208 47.057,37.9888 46.416,38.3218 C45.546,38.7738 44.521,39.1388 43.407,39.4158 L40.969,41.8658 C43.76,41.5728 46.218,40.8018 48,39.7178 L48,43.2428 C47.585,43.6208 47.057,43.9888 46.416,44.3218 C44.365,45.3878 41.479,45.9998 38.5,45.9998 C37.827,45.9998 37.189,45.9628 36.57,45.9078 C36.395,45.9578 36.215,45.9908 36.031,45.9908 C35.775,45.9908 35.518,45.9428 35.271,45.8408 C35.196,45.8098 35.137,45.7588 35.067,45.7198 C32.251,45.2528 30.146,44.2568 29,43.2078 L29,40.7198 C27.035,40.0128 25.417,39.0528 24.091,37.9498 C18.828,37.6098 16,35.4348 16,34.4998 L16,19.7178 C18.293,21.1128 21.694,21.9998 25.5,21.9998 C29.306,21.9998 32.707,21.1128 35,19.7178 L35,23.2628 C29.802,24.0508 26,26.5428 26,29.4998 L26,29.8238 C28.045,31.2138 30.391,31.8068 32.403,32.0238 C30.174,31.2138 29,30.1008 29,29.4998 C29,28.4848 32.329,25.9998 38.5,25.9998 C44.671,25.9998 48,28.4848 48,29.4998 C48,30.3278 45.786,32.1318 41.625,32.7698 L44.155,35.2868 C45.626,34.8968 46.937,34.3648 48,33.7178 L48,33.7178 Z M48,48.4998 C48,49.5158 44.671,51.9998 38.5,51.9998 C32.329,51.9998 29,49.5158 29,48.4998 L29,45.7178 C31.293,47.1128 34.694,47.9998 38.5,47.9998 C42.306,47.9998 45.707,47.1128 48,45.7178 L48,48.4998 Z M25.5,11.9998 C31.671,11.9998 35,14.4848 35,15.4998 C35,16.5158 31.671,18.9998 25.5,18.9998 C19.329,18.9998 16,16.5158 16,15.4998 C16,14.4848 19.329,11.9998 25.5,11.9998 L25.5,11.9998 Z M38.5,22.9998 C38.331,22.9998 38.167,23.0098 38,23.0128 L38,15.4998 C38,11.9098 32.403,8.9998 25.5,8.9998 C18.597,8.9998 13,11.9098 13,15.4998 L13,34.4998 C13,38.0898 18.597,40.9998 25.5,40.9998 C25.669,40.9998 25.833,40.9898 26,40.9868 L26,48.4998 C26,52.0898 31.597,54.9998 38.5,54.9998 C45.403,54.9998 51,52.0898 51,48.4998 L51,29.4998 C51,25.9098 45.403,22.9998 38.5,22.9998 L38.5,22.9998 Z M43.0146,36.9741 L35.9966,29.9911 L36.0076,34.0841 C32.9646,34.3061 23.2366,34.2561 19.9856,25.0311 C19.9856,25.0311 20.0326,39.4631 36.0216,39.9661 L36.0326,43.9911 L43.0146,36.9741 Z" id="path-3"></path>
    </defs>
    <g id="Page-1" stroke="none" stroke-width="1" fill="none" fill-rule="evenodd">
        <g id="wd-dist-cp">
            <g>
                <g id="Group-3">
                    <mask id="mask-2" fill="white">
                        <use xlink:href="#path-1"></use>
                    </mask>
                    <g id="Clip-2"></g>
                    <path d="M64,50.8047 L64,13.1957 C64,5.9377 58.063,-0.0003 50.805,-0.0003 L13.195,-0.0003 C5.937,-0.0003 0,5.9377 0,13.1957 L0,50.8047 C0,58.0617 5.937,63.9997 13.195,63.9997 L50.805,63.9997 C58.063,63.9997 64,58.0617 64,50.8047" id="Fill-1" fill="#EAEAEA" mask="url(#mask-2)"></path>
                </g>
                <mask id="mask-4" fill="white">
                    <use xlink:href="#path-3"></use>
                </mask>
                <g id="99.Color/State/Blue" mask="url(#mask-4)" fill="#0080D7">
                    <rect id="Rectangle-19-Copy-31" x="0" y="0" width="64" height="64"></rect>
                </g>
            </g>
        </g>
    </g>
</svg>