<?xml version="1.0" encoding="UTF-8"?>
<svg width="64px" height="64px" viewBox="0 0 64 64" version="1.1" xmlns="http://www.w3.org/2000/svg" xmlns:xlink="http://www.w3.org/1999/xlink">
    <!-- Generator: Sketch 47.1 (45422) - http://www.bohemiancoding.com/sketch -->
    <title>wd-fs</title>
    <desc>Created with Sketch.</desc>
    <defs>
        <polygon id="path-1" points="0 31.99985 0 0 64 0 64 31.99985 64 63.9997 0 63.9997"></polygon>
        <path d="M16.93,50.069 L47.069,50.069 L47.069,13.931 L16.93,13.931 L16.93,50.069 Z M14,53 L50,53 L50,11 L14,11 L14,53 Z M32,20 C36.963,20 41,24.037 41,29 C41,33.962 36.963,38 32,38 C30.135,38 28.399,37.429 26.961,36.453 L28.707,34.707 C29.098,34.316 29.098,33.684 28.707,33.293 C28.316,32.902 27.684,32.902 27.293,33.293 L25.441,35.144 C23.933,33.534 23,31.376 23,29 C23,24.037 27.037,20 32,20 M32,41 C25.373,41 20,35.627 20,29 C20,22.373 25.373,17 32,17 C38.627,17 44,22.373 44,29 C44,35.627 38.627,41 32,41 Z M22.5,47 C21.119,47 20,45.881 20,44.5 C20,43.119 21.119,42 22.5,42 C23.881,42 25,43.119 25,44.5 C25,45.881 23.881,47 22.5,47 Z M32,27 C33.103,27 34,27.897 34,29 C34,30.103 33.103,31 32,31 C30.897,31 30,30.103 30,29 C30,27.897 30.897,27 32,27 M32,33 C34.209,33 36,31.209 36,29 C36,26.791 34.209,25 32,25 C29.791,25 28,26.791 28,29 C28,31.209 29.791,33 32,33" id="path-3"></path>
    </defs>
    <g id="Page-1" stroke="none" stroke-width="1" fill="none" fill-rule="evenodd">
        <g id="wd-fs">
            <g>
                <g id="Group-3">
                    <mask id="mask-2" fill="white">
                        <use xlink:href="#path-1"></use>
                    </mask>
                    <g id="Clip-2"></g>
                    <path d="M64,50.8047 L64,13.1957 C64,5.9377 58.063,-0.0003 50.805,-0.0003 L13.195,-0.0003 C5.937,-0.0003 0,5.9377 0,13.1957 L0,50.8047 C0,58.0617 5.937,63.9997 13.195,63.9997 L50.805,63.9997 C58.063,63.9997 64,58.0617 64,50.8047" id="Fill-1" fill="#EAEAEA" mask="url(#mask-2)"></path>
                </g>
                <mask id="mask-4" fill="white">
                    <use xlink:href="#path-3"></use>
                </mask>
                <g id="99.Color/State/Blue" mask="url(#mask-4)" fill="#0080D7">
                    <rect id="Rectangle-19-Copy-31" x="0" y="0" width="64" height="64"></rect>
                </g>
            </g>
        </g>
    </g>
</svg>