<?xml version="1.0" encoding="UTF-8"?>
<svg width="64px" height="64px" viewBox="0 0 64 64" version="1.1" xmlns="http://www.w3.org/2000/svg" xmlns:xlink="http://www.w3.org/1999/xlink">
    <!-- Generator: Sketch 47.1 (45422) - http://www.bohemiancoding.com/sketch -->
    <title>wd-forest</title>
    <desc>Created with Sketch.</desc>
    <defs>
        <polygon id="path-1" points="0 31.99985 0 0 64 0 64 31.99985 64 63.9997 0 63.9997"></polygon>
        <path d="M20,32 L22,32 L22,30 L19,30 L18,30 L15,30 L15,32 L17,32 L17,37 L12,37 L12,32 L14,32 L14,30 L14,29 L15,29 L18,29 L18,26.949 C16.859,26.718 16,25.709 16,24.5 C16,23.291 16.859,22.282 18,22.051 L18,20 L18,19 L19,19 L26,19 L26,16.949 C24.859,16.718 24,15.709 24,14.5 C24,13.119 25.119,12 26.5,12 C27.881,12 29,13.119 29,14.5 C29,15.709 28.141,16.718 27,16.949 L27,19 L34,19 L35,19 L35,20 L35,22 L37,22 L37,27 L32,27 L32,22 L34,22 L34,20 L27,20 L27,22 L29,22 L29,27 L24,27 L24,22 L26,22 L26,20 L19,20 L19,22.051 C20.141,22.282 21,23.291 21,24.5 C21,25.709 20.141,26.718 19,26.949 L19,29 L22,29 L23,29 L23,30 L23,32 L25,32 L25,37 L20,37 L20,32 Z M42,45 L42,47 L44,47 L44,52 L39,52 L39,47 L41,47 L41,45 L34,45 L34,47 L36,47 L36,52 L31,52 L31,47 L33,47 L33,45 L26,45 L26,47 L28,47 L28,52 L23,52 L23,47 L25,47 L25,45 L25,44 L26,44 L33,44 L33,41.949 C31.859,41.718 31,40.709 31,39.5 C31,38.119 32.119,37 33.5,37 C34.881,37 36,38.119 36,39.5 C36,40.709 35.141,41.718 34,41.949 L34,44 L41,44 L42,44 L42,45 Z M50,32 L52,32 L52,37 L47,37 L47,32 L49,32 L49,30 L46,30 L45,30 L42,30 L42,32 L44,32 L44,37 L39,37 L39,32 L41,32 L41,30 L41,29 L42,29 L45,29 L45,26.949 C43.859,26.718 43,25.709 43,24.5 C43,23.119 44.119,22 45.5,22 C46.881,22 48,23.119 48,24.5 C48,25.709 47.141,26.718 46,26.949 L46,29 L49,29 L50,29 L50,30 L50,32 Z" id="path-3"></path>
    </defs>
    <g id="Page-1" stroke="none" stroke-width="1" fill="none" fill-rule="evenodd">
        <g id="wd-forest">
            <g>
                <g id="Group-3">
                    <mask id="mask-2" fill="white">
                        <use xlink:href="#path-1"></use>
                    </mask>
                    <g id="Clip-2"></g>
                    <path d="M64,50.8047 L64,13.1957 C64,5.9377 58.062,-0.0003 50.805,-0.0003 L13.195,-0.0003 C5.938,-0.0003 0,5.9377 0,13.1957 L0,50.8047 C0,58.0627 5.938,63.9997 13.195,63.9997 L50.805,63.9997 C58.062,63.9997 64,58.0627 64,50.8047" id="Fill-1" fill="#00ff00" mask="url(#mask-2)"></path>
                </g>
                <mask id="mask-4" fill="white">
                    <use xlink:href="#path-3"></use>
                </mask>
                <use id="Combined-Shape" fill="#000000" xlink:href="#path-3"></use>
                <g id="99.Color/State/Blue" mask="url(#mask-4)" fill="#ff0000">
                    <rect id="Rectangle-19-Copy-31" x="0" y="0" width="64" height="64"></rect>
                </g>
            </g>
        </g>
    </g>
</svg>