<?xml version="1.0" encoding="UTF-8"?>
<svg width="64px" height="64px" viewBox="0 0 64 64" version="1.1" xmlns="http://www.w3.org/2000/svg" xmlns:xlink="http://www.w3.org/1999/xlink">
    <defs>
        <polygon id="path-1" points="0 31.99985 0 0 64 0 64 31.99985 64 63.9997 0 63.9997"></polygon>
        <path d="M45,24 L51,18 L51,17 L45,11 L43,13 L46,16 L43.5,16 L43.5,16.003 C41.408,15.961 34.855,16.449 30.235,23.694 C26.71,29.222 21.913,29.942 20,29.997 L20,30 L19.938,30 C19.876,30.001 19.835,30 19.779,30 C19.756,30 19.728,29.999 19.706,29.999 C19.671,29.999 19.645,30 19.611,30 C19.584,30 19.545,30 19.52,30 L19.5,30 L19.163,30 L12,30 L12,33 L19.163,33 L19.5,33 L19.52,33 C19.545,33 19.584,33 19.611,33 C19.645,33 19.671,33.001 19.706,33.001 C19.728,33.001 19.756,33 19.779,33 C19.835,33 19.876,32.999 19.938,33 L20,33 L20,33.003 C21.913,33.058 26.71,33.778 30.235,39.306 C34.855,46.551 41.408,47.039 43.5,46.997 L43.5,47 L46,47 L43,50 L45,52 L51,46 L51,45 L45,39 L43,41 L46,44 L43.829,44 L43.5,44 C42.121,44.044 36.663,43.807 32.765,37.694 C30.711,34.474 28.275,32.598 26.016,31.5 C28.275,30.402 30.711,28.526 32.765,25.306 C36.663,19.193 42.121,18.956 43.5,19 L43.829,19 L46,19 L43,22 L45,24 Z" id="path-3"></path>
    </defs>
    <g id="Page-1" stroke="none" stroke-width="1" fill="none" fill-rule="evenodd">
        <g id="wd-fork">
            <g>
                <g id="Group-3">
                    <mask id="mask-2" fill="white">
                        <use xlink:href="#path-1"></use>
                    </mask>
                    <g id="Clip-2"></g>
                    <path d="M64,50.8047 L64,13.1957 C64,5.9377 58.062,-0.0003 50.805,-0.0003 L13.195,-0.0003 C5.938,-0.0003 0,5.9377 0,13.1957 L0,50.8047 C0,58.0617 5.938,63.9997 13.195,63.9997 L50.805,63.9997 C58.062,63.9997 64,58.0617 64,50.8047" id="Fill-1" fill="#00ff00" mask="url(#mask-2)"></path>
                </g>
                <mask id="mask-4" fill="white">
                    <use xlink:href="#path-3"></use>
                </mask>
                <g id="99.Color/State/Blue" mask="url(#mask-4)" fill="#ff0000">
                    <rect id="Rectangle-19-Copy-31" x="0" y="0" width="64" height="64"></rect>
                </g>
            </g>
        </g>
    </g>
</svg>