<?xml version="1.0" encoding="UTF-8"?>
<svg width="64px" height="64px" viewBox="0 0 64 64" version="1.1" xmlns="http://www.w3.org/2000/svg" xmlns:xlink="http://www.w3.org/1999/xlink">
    <!-- Generator: Sketch 47.1 (45422) - http://www.bohemiancoding.com/sketch -->
    <title>wd-grid</title>
    <desc>Created with Sketch.</desc>
    <defs>
        <polygon id="path-1" points="0 31.99985 0 0 64 0 64 31.99985 64 63.9997 0 63.9997"></polygon>
        <path d="M40,28 L49.042,28 L49.042,22 L40,22 L40,28 Z M40,46.042 L49.042,46.042 L49.042,40 L40,40 L40,46.042 Z M14.958,46.042 L24,46.042 L24,40 L14.958,40 L14.958,46.042 Z M14.958,28 L24,28 L24,22 L14.958,22 L14.958,28 Z M27,28 L37,28 L37,22 L27,22 L27,28 Z M27,37 L37,37 L37,31 L27,31 L27,37 Z M27,46.042 L37,46.042 L37,40 L27,40 L27,46.042 Z M14.958,37 L24,37 L24,31 L14.958,31 L14.958,37 Z M40,37 L49.042,37 L49.042,31 L40,31 L40,37 Z M12,14 L12,22 L12,49 L52,49 L52,22 L52,14 L12,14 Z M29,26 L35,26 L35,24 L29,24 L29,26 Z" id="path-3"></path>
    </defs>
    <g id="Page-1" stroke="none" stroke-width="1" fill="none" fill-rule="evenodd">
        <g id="wd-grid">
            <g>
                <g id="Group-3">
                    <mask id="mask-2" fill="white">
                        <use xlink:href="#path-1"></use>
                    </mask>
                    <g id="Clip-2"></g>
                    <path d="M64,50.8047 L64,13.1957 C64,5.9377 58.063,-0.0003 50.805,-0.0003 L13.195,-0.0003 C5.938,-0.0003 0,5.9377 0,13.1957 L0,50.8047 C0,58.0627 5.938,63.9997 13.195,63.9997 L50.805,63.9997 C58.063,63.9997 64,58.0627 64,50.8047" id="Fill-1" fill="#EAEAEA" mask="url(#mask-2)"></path>
                </g>
                <mask id="mask-4" fill="white">
                    <use xlink:href="#path-3"></use>
                </mask>
                <use id="Fill-4" fill="#000000" xlink:href="#path-3"></use>
                <g id="99.Color/State/Blue" mask="url(#mask-4)" fill="#0080D7">
                    <rect id="Rectangle-19-Copy-31" x="0" y="0" width="64" height="64"></rect>
                </g>
            </g>
        </g>
    </g>
</svg>