<?xml version="1.0" encoding="UTF-8"?>
<svg width="64px" height="64px" viewBox="0 0 64 64" version="1.1" xmlns="http://www.w3.org/2000/svg" xmlns:xlink="http://www.w3.org/1999/xlink">
    <defs>
        <polygon id="path-1" points="0 31.99985 0 0 64 0 64 31.99985 64 63.9997 0 63.9997"></polygon>
        <path d="M49.7,44.39456 L49.7,47.59916 L37.1,47.59916 C37.1336,46.27196 37.417100000000005,45.05816 37.9505,43.959860000000006 C38.465,42.72716 39.68300000000001,41.418859999999995 41.6045,40.04126 C43.269800000000004,38.84006 44.349199999999996,37.98116 44.8406,37.46246 C45.5924,36.65186 45.9704,35.76776 45.9704,34.80596 C45.9704,34.02266 45.7541,33.371660000000006 45.3236,32.85086 C44.891000000000005,32.33216 44.2736,32.073859999999996 43.469300000000004,32.073859999999996 C42.371,32.073859999999996 41.621300000000005,32.48546 41.2244,33.31286 C40.99550000000001,33.78956 40.8611,34.54556 40.819100000000006,35.58506 L37.3037,35.58506 C37.3625,34.01006 37.646,32.73746 38.1542,31.76726 C39.1202,29.91926 40.833800000000004,28.995260000000002 43.2992,28.995260000000002 C45.2459,28.995260000000002 46.795700000000004,29.539160000000003 47.9465,30.622760000000003 C49.097300000000004,31.708460000000002 49.6748,33.14696 49.6748,34.93406 C49.6748,36.30326 49.2674,37.52126 48.4547,38.58596 C47.919200000000004,39.291560000000004 47.0435,40.07906 45.8213,40.94636 L44.372299999999996,41.981660000000005 C43.467200000000005,42.628460000000004 42.845600000000005,43.09676 42.511700000000005,43.38656 C42.177800000000005,43.67636 41.8964,44.01236 41.667500000000004,44.39456 L49.7,44.39456 Z M35.74235,43.54763 C35.48195,44.16923 35.26565,44.81183 35.12705,45.485929999999996 L32.89895,44.21963 L28.07105,46.96643 C27.43895,47.38853 26.81105,47.60063 25.971049999999998,47.60063 C25.128950000000003,47.60063 24.49895,47.38853 23.87105,46.96643 L18.19895,43.58543 C16.93895,42.95123 16.098950000000002,41.47073 16.098950000000002,39.99233 L16.098950000000002,33.44243 C16.098950000000002,31.961930000000002 16.93895,30.69353 18.19895,29.849330000000002 L23.028950000000002,26.890430000000002 L23.028950000000002,21.39683 C23.028950000000002,19.916330000000002 23.87105,18.65003 25.128950000000003,17.80373 L30.79895,14.63273 C31.42895,14.21063 32.27105,14.00063 32.89895,14.00063 C33.73895,14.00063 34.37105,14.21063 34.99895,14.63273 L40.67105,18.01583 C41.92895,18.65003 42.77105,20.12843 42.77105,21.606830000000002 L42.77105,26.846330000000002 C41.99825,26.87993 41.296850000000006,26.97653 40.675250000000005,27.14453 C40.675250000000005,27.12983 40.67105,27.11723 40.67105,27.10043 L40.67105,21.606830000000002 C40.67105,20.76263 40.24895,20.12843 39.62105,19.70423 L33.948949999999996,16.32533 C33.52895,16.11323 33.32105,16.11323 32.89895,16.11323 C32.47895,16.11323 32.27105,16.11323 31.84895,16.32533 L26.17895,19.70423 C25.54895,20.12843 25.128950000000003,20.76263 25.128950000000003,21.606830000000002 L25.128950000000003,26.890430000000002 C25.128950000000003,27.73673 24.71105,28.368830000000003 24.07895,28.79303 L19.24895,31.53983 C18.62105,31.961930000000002 18.19895,32.59613 18.19895,33.44243 L18.19895,40.20443 C18.19895,40.836529999999996 18.62105,41.682829999999996 19.24895,41.89493 L24.92105,45.27593 C25.33895,45.485929999999996 25.54895,45.485929999999996 25.971049999999998,45.485929999999996 C26.38895,45.485929999999996 26.598950000000002,45.485929999999996 27.021050000000002,45.27593 L31.84895,42.52913 C32.27105,42.31703 32.47895,42.31703 32.89895,42.31703 C33.32105,42.31703 33.52895,42.31703 33.948949999999996,42.52913 L35.74235,43.54763 Z M43.10264,34.272980000000004 C43.129940000000005,34.272980000000004 43.22864,34.25198 43.40504,34.25198 C43.57094000000001,34.25198 43.633939999999996,34.27718 43.633939999999996,34.27928 C43.633939999999996,34.29608 43.73894,34.42208 43.73894,34.806380000000004 C43.73894,35.05628 43.68224,35.448980000000006 43.19294000000001,35.97188 C43.121539999999996,36.04748 42.99554,36.17138 42.77714,36.356179999999995 C42.85904,36.14408 42.905240000000006,35.91308 42.91574,35.673680000000004 C42.95564,34.71398 43.07324,34.35068 43.10264,34.272980000000004 Z M30.58979,32.59655 C31.42979,33.01865 31.849790000000002,33.86495 31.849790000000002,34.70915 L31.849790000000002,38.72435 C31.849790000000002,39.56855 31.42979,40.41485 30.58979,40.83905 L27.22979,42.73745 C26.59979,43.16375 25.54979,43.16375 24.91979,42.73745 L21.55979,40.83905 C20.71979,40.41485 20.29979,39.56855 20.29979,38.72435 L20.29979,34.70915 C20.29979,33.86495 20.92979,33.01865 21.55979,32.59655 L24.91979,30.48395 C25.54979,30.05975 26.59979,30.05975 27.22979,30.48395 L30.58979,32.59655 Z M38.39402,28.197470000000003 C37.99922,28.47467 37.66322,28.77917 37.36292,29.09627 L33.95042,31.116470000000003 C33.31832,31.540670000000002 32.26832,31.540670000000002 31.64042,31.116470000000003 L28.06832,29.00387 C27.230420000000002,28.58177 26.808320000000002,27.73547 26.808320000000002,26.89127 L26.808320000000002,22.87607 C26.808320000000002,22.02977 27.44042,21.18557 28.06832,20.76137 L31.64042,18.64877 C32.48042,18.22667 33.31832,18.22667 33.95042,18.64877 L37.51832,20.76137 C38.35832,21.18557 38.78042000000001,22.02977 38.78042000000001,22.87607 L38.78042000000001,26.89127 C38.78042000000001,27.351170000000003 38.64392,27.804769999999998 38.39402,28.197470000000003 Z M36.72788,41.65889 L35.421679999999995,40.83779 C34.57958,40.41569 34.159580000000005,39.56939 34.159580000000005,38.72519 L34.159580000000005,34.707890000000006 C34.159580000000005,33.865790000000004 34.57958,33.019490000000005 35.421679999999995,32.595290000000006 L35.49938,32.546989999999994 C35.264179999999996,33.42479 35.115080000000006,34.39709 35.073080000000004,35.501689999999996 C35.052080000000004,36.09389 35.270480000000006,36.669290000000004 35.67788,37.09559 C36.08528,37.52189 36.64808000000001,37.76339 37.23818,37.76339 L40.75358,37.76339 C40.83338,37.76339 40.91108,37.759190000000004 40.990880000000004,37.75079 C40.77248,37.91039 40.537279999999996,38.082589999999996 40.278980000000004,38.269490000000005 C38.68928,39.41189 37.52588,40.53119 36.72788,41.65889 Z" id="path-3"></path>
    </defs>
    <g id="Page-1" stroke="none" stroke-width="1" fill="none" fill-rule="evenodd">
        <g id="wd-hive2">
            <g>
                <g id="Group-3">
                    <mask id="mask-2" fill="white">
                        <use xlink:href="#path-1"></use>
                    </mask>
                    <g id="Clip-2"></g>
                    <path d="M64,50.8047 L64,13.1957 C64,5.9377 58.062,-0.0003 50.805,-0.0003 L13.195,-0.0003 C5.938,-0.0003 0,5.9377 0,13.1957 L0,50.8047 C0,58.0617 5.938,63.9997 13.195,63.9997 L50.805,63.9997 C58.062,63.9997 64,58.0617 64,50.8047" id="Fill-1" fill="#6DA8E4" mask="url(#mask-2)"></path>
                </g>
                <mask id="mask-4" fill="white">
                    <use xlink:href="#path-3"></use>
                </mask>
                <g id="99.Color/State/Blue" mask="url(#mask-4)" fill="#FFF300">
                    <rect id="Rectangle-19-Copy-31" x="0" y="0" width="64" height="64"></rect>
                </g>
            </g>
        </g>
    </g>
</svg>