<?xml version="1.0" encoding="UTF-8"?>
<svg width="64px" height="64px" viewBox="0 0 64 64" version="1.1" xmlns="http://www.w3.org/2000/svg" xmlns:xlink="http://www.w3.org/1999/xlink">
    <defs>
        <polygon id="path-1" points="0 31.99985 0 0 64 0 64 31.99985 64 63.9997 0 63.9997"></polygon>
        <path d="M45,25 L43,27 L46,30 L40.837,30 L40.562,30 C40.529,30 40.502,29.999 40.468,29.999 C40.445,29.999 40.417,30 40.394,30 C40.294,30.001 40.191,30.003 40.062,30 L40,30 L40,29.997 C38.087,29.942 33.29,29.222 29.765,23.694 C25.145,16.449 18.592,15.961 16.5,16.003 L16.5,16 L12,16 L12,19 L16.171,19 L16.5,19 C17.879,18.956 23.337,19.193 27.235,25.306 C29.315,28.568 31.787,30.45 34.071,31.541 C31.836,32.645 29.436,34.515 27.409,37.694 C23.511,43.807 18.053,44.044 16.673,44 L16.5,44 L16.345,44 L12,44 L12,47 L16.5,47 L16.5,46.994 C18.396,47.062 25.193,46.747 29.938,39.306 C33.463,33.778 38.26,33.058 40.173,33.003 L40.173,33 L40.221,33 C40.244,33 40.272,33.001 40.294,33.001 C40.329,33.001 40.355,33 40.389,33 C40.427,33 40.464,33 40.5,33 L40.654,33 L41.01,33 L46,33 L43,36 L45,38 L51,32 L51,31 L45,25 Z" id="path-3"></path>
    </defs>
    <g id="Page-1" stroke="none" stroke-width="1" fill="none" fill-rule="evenodd">
        <g id="wd-join">
            <g>
                <g id="Group-3">
                    <mask id="mask-2" fill="white">
                        <use xlink:href="#path-1"></use>
                    </mask>
                    <g id="Clip-2"></g>
                    <path d="M64,50.8047 L64,13.1957 C64,5.9377 58.062,-0.0003 50.805,-0.0003 L13.195,-0.0003 C5.938,-0.0003 0,5.9377 0,13.1957 L0,50.8047 C0,58.0617 5.938,63.9997 13.195,63.9997 L50.805,63.9997 C58.062,63.9997 64,58.0617 64,50.8047" id="Fill-1" fill="#6DA8E4" mask="url(#mask-2)"></path>
                </g>
                <mask id="mask-4" fill="white">
                    <use xlink:href="#path-3"></use>
                </mask>
                <g id="99.Color/State/Blue" mask="url(#mask-4)" fill="#FFF300">
                    <rect id="Rectangle-19-Copy-31" x="0" y="0" width="64" height="64"></rect>
                </g>
            </g>
        </g>
    </g>
</svg>