<?xml version="1.0" encoding="UTF-8"?>
<svg width="64px" height="64px" viewBox="0 0 64 64" version="1.1" xmlns="http://www.w3.org/2000/svg" xmlns:xlink="http://www.w3.org/1999/xlink">
    <!-- Generator: Sketch 47.1 (45422) - http://www.bohemiancoding.com/sketch -->
    <title>wd-java</title>
    <desc>Created with Sketch.</desc>
    <defs>
        <polygon id="path-1" points="0 31.99985 0 0 64 0 64 31.99985 64 63.9997 0 63.9997"></polygon>
        <path d="M31.9775,26.7847 C26.0445,19.9487 38.4665,16.8457 38.4665,16.8457 C30.5525,21.4357 32.0145,22.7667 33.9205,25.4457 C35.9615,28.3187 31.5175,30.6127 31.5175,30.6127 C31.5175,30.6127 33.7275,28.7997 31.9775,26.7847 Z M33.9209,9.4346 C33.9209,9.4346 37.6919,13.2056 30.3449,19.0056 C24.4539,23.6576 29.0019,26.3106 30.3429,29.3416 C26.9039,26.2386 24.3799,23.5076 26.0739,20.9656 C28.5579,17.2346 35.4419,15.4256 33.9209,9.4346 Z M51.0654,35.5254 L51.0614,35.5254 L50.7944,36.2384 L50.6714,36.2384 L50.4064,35.5254 L50.4024,35.5254 L50.4024,36.2384 L50.2254,36.2384 L50.2254,35.3364 L50.4864,35.3364 L50.7324,35.9754 L50.9784,35.3364 L51.2384,35.3364 L51.2384,36.2384 L51.0654,36.2384 L51.0654,35.5254 Z M49.6174,35.4864 L49.3484,35.4864 L49.3484,35.3354 L50.0744,35.3354 L50.0744,35.4864 L49.8064,35.4864 L49.8064,36.2384 L49.6174,36.2384 L49.6174,35.4864 Z M28.1421,46.5635 L28.1421,38.5275 C28.1421,36.4745 26.9711,35.1195 24.1481,35.1195 C22.5001,35.1195 21.0561,35.5265 19.8831,36.0455 L20.2221,37.4685 C21.1451,37.1285 22.3411,36.8135 23.5151,36.8135 C25.1421,36.8135 25.8411,37.4685 25.8411,38.8215 L25.8411,39.8375 L25.0291,39.8375 C21.0781,39.8375 19.2961,41.3715 19.2961,43.6735 C19.2961,45.6605 20.4701,46.7905 22.6821,46.7905 C24.1031,46.7905 25.1641,46.2025 26.1571,45.3435 L26.3371,46.5635 L28.1421,46.5635 Z M25.8411,43.9675 C25.0071,44.6905 24.1261,45.0965 23.3361,45.0965 C22.2081,45.0965 21.5981,44.4205 21.5981,43.3345 C21.5981,42.1615 22.2511,41.3035 24.8711,41.3035 L25.8411,41.3035 L25.8411,43.9675 Z M35.8213,46.5635 L32.9513,46.5635 L29.4973,35.3235 L32.0043,35.3235 L34.1473,42.2295 L34.6233,44.3065 C35.7073,41.3035 36.4743,38.2565 36.8583,35.3235 L39.2963,35.3235 C38.6433,39.0245 37.4673,43.0875 35.8213,46.5635 Z M49.1313,46.5635 L49.1313,38.5275 C49.1313,36.4745 47.9573,35.1195 45.1373,35.1195 C43.4883,35.1195 42.0443,35.5265 40.8713,36.0455 L41.2103,37.4685 C42.1333,37.1285 43.3323,36.8135 44.5053,36.8135 C46.1303,36.8135 46.8303,37.4685 46.8303,38.8215 L46.8303,39.8375 L46.0173,39.8375 C42.0653,39.8375 40.2833,41.3715 40.2833,43.6735 C40.2833,45.6605 41.4573,46.7905 43.6683,46.7905 C45.0903,46.7905 46.1523,46.2025 47.1453,45.3435 L47.3263,46.5635 L49.1313,46.5635 Z M46.8303,43.9675 C45.9953,44.6905 45.1123,45.0965 44.3223,45.0965 C43.1963,45.0965 42.5853,44.4205 42.5853,43.3345 C42.5853,42.1615 43.2393,41.3035 45.8593,41.3035 L46.8303,41.3035 L46.8303,43.9675 Z M16.7729,48.4727 C16.1169,49.4307 15.0569,50.1877 13.8979,50.6167 L12.7609,49.2797 C13.6449,48.8267 14.4009,48.0947 14.7529,47.4137 C15.0569,46.8077 15.1839,46.0267 15.1839,44.1587 L15.1839,31.3257 L17.6279,31.3257 L17.6279,43.9827 C17.6279,46.4797 17.4279,47.4887 16.7729,48.4727 Z" id="path-3"></path>
    </defs>
    <g id="Page-1" stroke="none" stroke-width="1" fill="none" fill-rule="evenodd">
        <g id="wd-java">
            <g>
                <g id="Group-3">
                    <mask id="mask-2" fill="white">
                        <use xlink:href="#path-1"></use>
                    </mask>
                    <g id="Clip-2"></g>
                    <path d="M64,50.8047 L64,13.1957 C64,5.9377 58.062,-0.0003 50.805,-0.0003 L13.195,-0.0003 C5.938,-0.0003 0,5.9377 0,13.1957 L0,50.8047 C0,58.0617 5.938,63.9997 13.195,63.9997 L50.805,63.9997 C58.062,63.9997 64,58.0617 64,50.8047" id="Fill-1" fill="#EAEAEA" mask="url(#mask-2)"></path>
                </g>
                <mask id="mask-4" fill="white">
                    <use xlink:href="#path-3"></use>
                </mask>
                <use id="Fill-8" fill="#000000" xlink:href="#path-3"></use>
                <g id="99.Color/State/Blue" mask="url(#mask-4)" fill="#0080D7">
                    <rect id="Rectangle-19-Copy-31" x="0" y="0" width="64" height="64"></rect>
                </g>
            </g>
        </g>
    </g>
</svg>