<?xml version="1.0" encoding="UTF-8"?>
<svg width="64px" height="64px" viewBox="0 0 64 64" version="1.1" xmlns="http://www.w3.org/2000/svg" xmlns:xlink="http://www.w3.org/1999/xlink">
    <!-- Generator: Sketch 47.1 (45422) - http://www.bohemiancoding.com/sketch -->
    <title>wd-knn</title>
    <desc>Created with Sketch.</desc>
    <defs>
        <polygon id="path-1" points="0 31.99985 0 0 64 0 64 31.99985 64 63.9997 0 63.9997"></polygon>
        <path d="M35,47 C36.657,47 38,48.343 38,50 C38,51.657 36.657,53 35,53 C33.343,53 32,51.657 32,50 C32,48.343 33.343,47 35,47 Z M50,29 C51.657,29 53,30.343 53,32 C53,33.657 51.657,35 50,35 C48.343,35 47,33.657 47,32 C47,30.343 48.343,29 50,29 Z M46,41 C47.657,41 49,42.343 49,44 C49,45.657 47.657,47 46,47 C44.343,47 43,45.657 43,44 C43,43.6 43.082,43.219 43.224,42.87 L38.439,38.617 C38.011,38.854 37.524,39 37,39 C36.239,39 35.553,38.708 35.024,38.241 L30.95,40.505 C30.978,40.667 31,40.83 31,41 C31,42.657 29.657,44 28,44 C26.343,44 25,42.657 25,41 C25,39.343 26.343,38 28,38 C28.761,38 29.447,38.292 29.976,38.759 L34.05,36.495 C34.022,36.333 34,36.17 34,36 C34,34.695 34.838,33.597 36,33.184 L36,27.816 C34.838,27.403 34,26.305 34,25 C34,23.343 35.343,22 37,22 C38.657,22 40,23.343 40,25 C40,26.305 39.162,27.403 38,27.816 L38,33.184 C39.162,33.597 40,34.695 40,36 C40,36.4 39.918,36.781 39.775,37.13 L44.561,41.383 C44.989,41.146 45.476,41 46,41 Z M45,19 C43.343,19 42,17.657 42,16 C42,14.343 43.343,13 45,13 C46.657,13 48,14.343 48,16 C48,17.657 46.657,19 45,19 Z M32,17 C30.343,17 29,15.657 29,14 C29,12.343 30.343,11 32,11 C33.657,11 35,12.343 35,14 C35,15.657 33.657,17 32,17 Z M18,20 C16.343,20 15,18.657 15,17 C15,15.343 16.343,14 18,14 C19.657,14 21,15.343 21,17 C21,18.657 19.657,20 18,20 Z M26,29 C26,30.657 24.657,32 23,32 C21.343,32 20,30.657 20,29 C20,27.343 21.343,26 23,26 C24.657,26 26,27.343 26,29 Z M17,38 C18.657,38 20,39.343 20,41 C20,42.657 18.657,44 17,44 C15.343,44 14,42.657 14,41 C14,39.343 15.343,38 17,38 Z" id="path-3"></path>
    </defs>
    <g id="Page-1" stroke="none" stroke-width="1" fill="none" fill-rule="evenodd">
        <g id="wd-knn">
            <g>
                <g id="Group-3">
                    <mask id="mask-2" fill="white">
                        <use xlink:href="#path-1"></use>
                    </mask>
                    <g id="Clip-2"></g>
                    <path d="M64,50.8047 L64,13.1957 C64,5.9377 58.063,-0.0003 50.805,-0.0003 L13.195,-0.0003 C5.937,-0.0003 0,5.9377 0,13.1957 L0,50.8047 C0,58.0627 5.937,63.9997 13.195,63.9997 L50.805,63.9997 C58.063,63.9997 64,58.0627 64,50.8047" id="Fill-1" fill="#6DA8E4" mask="url(#mask-2)"></path>
                </g>
                <mask id="mask-4" fill="white">
                    <use xlink:href="#path-3"></use>
                </mask>
                <use id="Combined-Shape" fill="#000000" xlink:href="#path-3"></use>
                <g id="99.Color/State/Blue" mask="url(#mask-4)" fill="#FFF300">
                    <rect id="Rectangle-19-Copy-31" x="0" y="0" width="64" height="64"></rect>
                </g>
            </g>
        </g>
    </g>
</svg>