<?xml version="1.0" encoding="UTF-8"?>
<svg width="64px" height="64px" viewBox="0 0 64 64" version="1.1" xmlns="http://www.w3.org/2000/svg" xmlns:xlink="http://www.w3.org/1999/xlink">
    <!-- Generator: Sketch 47.1 (45422) - http://www.bohemiancoding.com/sketch -->
    <title>wd-linear</title>
    <desc>Created with Sketch.</desc>
    <defs>
        <polygon id="path-1" points="0 31.99985 0 0 64 0 64 31.99985 64 63.9997 0 63.9997"></polygon>
        <path d="M45,23 C43.343,23 42,21.657 42,20 C42,18.343 43.343,17 45,17 C46.657,17 48,18.343 48,20 C48,21.657 46.657,23 45,23 Z M25,33 C23.343,33 22,31.657 22,30 C22,28.343 23.343,27 25,27 C26.657,27 28,28.343 28,30 C28,31.657 26.657,33 25,33 Z M28,40 C29.657,40 31,41.343 31,43 C31,44.657 29.657,46 28,46 C26.343,46 25,44.657 25,43 C25,41.343 26.343,40 28,40 Z M40,32 C41.657,32 43,33.343 43,35 C43,36.657 41.657,38 40,38 C38.343,38 37,36.657 37,35 C37,33.343 38.343,32 40,32 Z M48,28 C49.657,28 51,29.343 51,31 C51,32.657 49.657,34 48,34 C46.343,34 45,32.657 45,31 C45,29.343 46.343,28 48,28 Z M33.2705,33.0273 C34.7985,33.1663 35.9995,34.4353 35.9995,36.0003 C35.9995,37.6573 34.6565,39.0003 32.9995,39.0003 C31.3435,39.0003 29.9995,37.6573 29.9995,36.0003 C29.9995,35.3333 30.2245,34.7233 30.5925,34.2253 L19.7105,39.0933 C21.0225,39.4143 21.9995,40.5893 21.9995,42.0003 C21.9995,43.6573 20.6565,45.0003 18.9995,45.0003 C17.3435,45.0003 15.9995,43.6573 15.9995,42.0003 C15.9995,41.4873 16.1405,41.0113 16.3675,40.5893 L13.4085,41.9133 L12.5915,40.0873 L19.6815,36.9153 C19.4615,36.9663 19.2355,37.0003 18.9995,37.0003 C17.3435,37.0003 15.9995,35.6573 15.9995,34.0003 C15.9995,32.3423 17.3435,31.0003 18.9995,31.0003 C20.6565,31.0003 21.9995,32.3423 21.9995,34.0003 C21.9995,35.0133 21.4945,35.9053 20.7245,36.4483 L37.8735,28.7773 C36.7755,28.3313 35.9995,27.2573 35.9995,26.0003 C35.9995,24.3423 37.3435,23.0003 38.9995,23.0003 C40.6565,23.0003 41.9995,24.3423 41.9995,26.0003 C41.9995,26.3583 41.9265,26.6963 41.8115,27.0143 L50.5915,23.0873 L51.4085,24.9133 L33.2705,33.0273 Z M32,26 C30.343,26 29,24.657 29,23 C29,21.343 30.343,20 32,20 C33.657,20 35,21.343 35,23 C35,24.657 33.657,26 32,26 Z" id="path-3"></path>
    </defs>
    <g id="Page-1" stroke="none" stroke-width="1" fill="none" fill-rule="evenodd">
        <g id="wd-linear">
            <g>
                <g id="Group-3">
                    <mask id="mask-2" fill="white">
                        <use xlink:href="#path-1"></use>
                    </mask>
                    <g id="Clip-2"></g>
                    <path d="M64,50.8047 L64,13.1957 C64,5.9377 58.062,-0.0003 50.805,-0.0003 L13.195,-0.0003 C5.938,-0.0003 0,5.9377 0,13.1957 L0,50.8047 C0,58.0627 5.938,63.9997 13.195,63.9997 L50.805,63.9997 C58.062,63.9997 64,58.0627 64,50.8047" id="Fill-1" fill="#6DA8E4" mask="url(#mask-2)"></path>
                </g>
                <mask id="mask-4" fill="white">
                    <use xlink:href="#path-3"></use>
                </mask>
                <use id="Combined-Shape" fill="#000000" xlink:href="#path-3"></use>
                <g id="99.Color/State/Blue" mask="url(#mask-4)" fill="#FFF300">
                    <rect id="Rectangle-19-Copy-31" x="0" y="0" width="64" height="64"></rect>
                </g>
            </g>
        </g>
    </g>
</svg>