<?xml version="1.0" encoding="UTF-8"?>
<svg width="64px" height="64px" viewBox="0 0 64 64" version="1.1" xmlns="http://www.w3.org/2000/svg" xmlns:xlink="http://www.w3.org/1999/xlink">
    <!-- Generator: Sketch 47.1 (45422) - http://www.bohemiancoding.com/sketch -->
    <title>wd-mapreduce</title>
    <desc>Created with Sketch.</desc>
    <defs>
        <polygon id="path-1" points="0 31.99985 0 0 64 0 64 31.99985 64 63.9997 0 63.9997"></polygon>
        <path d="M46.959,28.019 C46.959,26.486 46.377,25.874 44.509,25.874 L40.864,25.874 L40.864,31.877 L44.509,31.877 C46.469,31.877 46.959,31.173 46.959,29.641 L46.959,28.019 Z M43.559,35.86 L40.864,35.86 L40.864,42.2 L36.27,42.2 L36.27,21.8 L44.753,21.8 C49.715,21.8 51.553,23.76 51.553,27.59 L51.553,30.102 C51.553,32.644 50.634,34.359 48.583,35.217 L53.514,42.2 L48.062,42.2 L43.559,35.86 Z M16.6221,30.8672 L16.3151,42.2002 L11.8751,42.2002 L12.7321,21.8002 L17.3261,21.8002 L22.2271,34.7872 L27.1281,21.8002 L31.7221,21.8002 L32.5801,42.2002 L28.1401,42.2002 L27.8321,30.8672 L24.2791,42.2002 L20.1751,42.2002 L16.6221,30.8672 Z" id="path-3"></path>
    </defs>
    <g id="Page-1" stroke="none" stroke-width="1" fill="none" fill-rule="evenodd">
        <g id="wd-mapreduce">
            <g>
                <g id="Group-3">
                    <mask id="mask-2" fill="white">
                        <use xlink:href="#path-1"></use>
                    </mask>
                    <g id="Clip-2"></g>
                    <path d="M64,50.8047 L64,13.1957 C64,5.9377 58.063,-0.0003 50.805,-0.0003 L13.195,-0.0003 C5.937,-0.0003 0,5.9377 0,13.1957 L0,50.8047 C0,58.0617 5.937,63.9997 13.195,63.9997 L50.805,63.9997 C58.063,63.9997 64,58.0617 64,50.8047" id="Fill-1" fill="#EAEAEA" mask="url(#mask-2)"></path>
                </g>
                <mask id="mask-4" fill="white">
                    <use xlink:href="#path-3"></use>
                </mask>
                <g id="99.Color/State/Blue" mask="url(#mask-4)" fill="#0080D7">
                    <rect id="Rectangle-19-Copy-31" x="0" y="0" width="64" height="64"></rect>
                </g>
            </g>
        </g>
    </g>
</svg>