<?xml version="1.0" encoding="UTF-8"?>
<svg width="64px" height="64px" viewBox="0 0 64 64" version="1.1" xmlns="http://www.w3.org/2000/svg" xmlns:xlink="http://www.w3.org/1999/xlink">
    <!-- Generator: Sketch 47.1 (45422) - http://www.bohemiancoding.com/sketch -->
    <title>wd-naive-bayes</title>
    <desc>Created with Sketch.</desc>
    <defs>
        <polygon id="path-1" points="0 31.99985 0 0 64 0 64 31.99985 64 63.9997 0 63.9997"></polygon>
        <path d="M32,42 C33.103,42 34,42.897 34,44 C34,45.103 33.103,46 32,46 C30.897,46 30,45.103 30,44 C30,42.897 30.897,42 32,42 M27,44 C27,46.762 29.238,49 32,49 C34.762,49 37,46.762 37,44 C37,41.238 34.762,39 32,39 C29.238,39 27,41.238 27,44 M48,45 C46.897,45 46,44.103 46,43 C46,41.897 46.897,41 48,41 C49.103,41 50,41.897 50,43 C50,44.103 49.103,45 48,45 M32,23.8 C30.456,23.8 29.2,22.544 29.2,21 C29.2,19.456 30.456,18.2 32,18.2 C33.544,18.2 34.8,19.456 34.8,21 C34.8,22.544 33.544,23.8 32,23.8 M16,45 C14.897,45 14,44.103 14,43 C14,41.897 14.897,41 16,41 C17.103,41 18,41.897 18,43 C18,44.103 17.103,45 16,45 M48,38 C46.866,38 45.832,38.392 44.994,39.028 L45.117,34.086 L43.488,35.245 L36.903,25.992 C38.196,24.722 39,22.955 39,21 C39,17.134 35.866,14 32,14 C28.134,14 25,17.134 25,21 C25,22.955 25.804,24.722 27.097,25.991 L20.512,35.245 L18.883,34.086 L19.006,39.028 C18.168,38.392 17.134,38 16,38 C13.238,38 11,40.238 11,43 C11,45.762 13.238,48 16,48 C18.762,48 21,45.762 21,43 C21,41.396 20.23,39.983 19.056,39.068 L23.771,37.564 L22.142,36.404 L28.708,27.177 C29.408,27.551 30.183,27.803 31,27.921 L31,35 L29,35 L32,39 L35,35 L33,35 L33,27.921 C33.817,27.803 34.592,27.551 35.292,27.177 L41.858,36.404 L40.229,37.564 L44.944,39.068 C43.77,39.983 43,41.396 43,43 C43,45.762 45.238,48 48,48 C50.762,48 53,45.762 53,43 C53,40.238 50.762,38 48,38" id="path-3"></path>
    </defs>
    <g id="Page-1" stroke="none" stroke-width="1" fill="none" fill-rule="evenodd">
        <g id="wd-naive-bayes">
            <g>
                <g id="Group-3">
                    <mask id="mask-2" fill="white">
                        <use xlink:href="#path-1"></use>
                    </mask>
                    <g id="Clip-2"></g>
                    <path d="M64,50.8047 L64,13.1957 C64,5.9377 58.063,-0.0003 50.805,-0.0003 L13.195,-0.0003 C5.937,-0.0003 0,5.9377 0,13.1957 L0,50.8047 C0,58.0627 5.937,63.9997 13.195,63.9997 L50.805,63.9997 C58.063,63.9997 64,58.0627 64,50.8047" id="Fill-1" fill="#00ff00" mask="url(#mask-2)"></path>
                </g>
                <mask id="mask-4" fill="white">
                    <use xlink:href="#path-3"></use>
                </mask>
                <use id="Fill-4" fill="#000000" xlink:href="#path-3"></use>
                <g id="99.Color/State/Blue" mask="url(#mask-4)" fill="#ff0000">
                    <rect id="Rectangle-19-Copy-31" x="0" y="0" width="64" height="64"></rect>
                </g>
            </g>
        </g>
    </g>
</svg>