<?xml version="1.0" encoding="UTF-8"?>
<svg width="64px" height="64px" viewBox="0 0 64 64" version="1.1" xmlns="http://www.w3.org/2000/svg" xmlns:xlink="http://www.w3.org/1999/xlink">
    <defs>
        <polygon id="path-1" points="0 31.99985 0 0 64 0 64 31.99985 64 63.9997 0 63.9997"></polygon>
        <path d="M22.1546,26.8444 C21.8816,26.8444 21.6286,26.9274 21.4146,27.0654 C21.0406,27.3084 20.7926,27.7274 20.7926,28.2074 C20.7926,28.2974 20.8016,28.3854 20.8186,28.4694 C20.9416,29.0964 21.4916,29.5694 22.1546,29.5694 C22.9066,29.5694 23.5166,28.9594 23.5166,28.2074 C23.5166,27.4544 22.9066,26.8444 22.1546,26.8444 M49.099,24.799 C48.997,25.008 48.791,25.188 48.565,25.344 C48.228,25.272 47.919,25.122 47.76,24.861 C47.585,24.574 47.65,24.125 47.899,23.899 C48.033,23.778 48.226,23.715 48.419,23.715 C48.583,23.715 48.747,23.761 48.871,23.854 C49.14,24.056 49.246,24.498 49.099,24.799 L49.099,24.799 Z M41.318,39.319 L40.885,39.782 L41.266,42.662 L41.654,45.598 L36.581,45.598 L36.06,44.804 L34.988,43.17 L34.071,43.391 C32.768,43.704 31.413,43.863 30.042,43.863 C29.56,43.863 29.076,43.843 28.602,43.804 L27.834,43.74 L27.781,43.816 L26.536,45.598 L21.438,45.598 L21.95,41.728 L21.282,41.261 C19.616,40.098 18.298,38.588 17.472,36.892 L17.209,36.352 L13.681,35.359 L13.681,29.575 L17.209,28.582 L17.472,28.042 C17.956,27.048 18.604,26.121 19.397,25.286 L19.936,24.719 L18.095,18.686 C18.22,18.683 18.351,18.681 18.488,18.681 C19.729,18.681 20.894,18.843 21.857,19.15 C23.09,19.542 24.027,20.174 24.641,21.027 L25.171,21.761 L26.049,21.545 C26.394,21.46 26.745,21.388 27.099,21.326 C28.055,21.158 29.04,21.07 30.042,21.07 C37.829,21.07 44.164,26.183 44.164,32.467 C44.164,34.959 43.18,37.329 41.318,39.319 L41.318,39.319 Z M52.074,24.073 C51.66,24.517 51.146,24.864 50.584,25.093 C50.824,24.217 50.505,23.205 49.772,22.654 C48.932,22.023 47.667,22.083 46.891,22.788 C46.114,23.493 45.932,24.747 46.479,25.642 C46.606,25.851 46.765,26.036 46.952,26.196 C46.44,26.409 45.906,26.567 45.363,26.693 C45.203,26.398 45.037,26.107 44.855,25.822 C44.802,25.74 44.751,25.655 44.696,25.574 C44.56,25.372 44.409,25.178 44.261,24.982 C43.57,24.061 42.767,23.199 41.828,22.426 C38.668,19.823 34.482,18.39 30.042,18.39 C28.746,18.39 27.471,18.513 26.238,18.757 C25.327,17.785 24.13,17.06 22.67,16.595 C21.43,16.2 20.023,16 18.488,16 C17.122,16 16.144,16.164 16.103,16.171 L14.602,16.427 L16.923,24.03 C16.314,24.747 15.786,25.514 15.344,26.322 L11,27.546 L11,37.388 L15.344,38.612 C16.248,40.264 17.524,41.75 19.081,42.968 L18.38,48.278 L27.932,48.278 L29.158,46.525 C29.452,46.537 29.747,46.544 30.042,46.544 C31.301,46.544 32.55,46.427 33.768,46.197 L35.135,48.278 L44.712,48.278 L43.706,40.669 C44.63,39.591 45.363,38.413 45.891,37.161 C46.524,35.656 46.845,34.077 46.845,32.467 C46.845,32.096 46.81,31.73 46.776,31.364 C46.768,31.277 46.77,31.188 46.76,31.101 C46.738,30.901 46.697,30.707 46.665,30.51 C46.617,30.22 46.57,29.93 46.5,29.645 C46.374,29.11 46.203,28.591 46.007,28.086 C47.024,27.82 47.998,27.427 48.909,26.897 C49.073,26.903 49.242,26.901 49.413,26.889 C50.831,26.787 52.2,26.135 53.17,25.099 L52.074,24.073 Z" id="path-3"></path>
    </defs>
    <g id="Page-1" stroke="none" stroke-width="1" fill="none" fill-rule="evenodd">
        <g id="wd-pig">
            <g>
                <g id="Group-3">
                    <mask id="mask-2" fill="white">
                        <use xlink:href="#path-1"></use>
                    </mask>
                    <g id="Clip-2"></g>
                    <path d="M64,50.8047 L64,13.1957 C64,5.9377 58.062,-0.0003 50.805,-0.0003 L13.195,-0.0003 C5.938,-0.0003 0,5.9377 0,13.1957 L0,50.8047 C0,58.0617 5.938,63.9997 13.195,63.9997 L50.805,63.9997 C58.062,63.9997 64,58.0617 64,50.8047" id="Fill-1" fill="#6DA8E4" mask="url(#mask-2)"></path>
                </g>
                <mask id="mask-4" fill="white">
                    <use xlink:href="#path-3"></use>
                </mask>
                <g id="99.Color/State/Blue" mask="url(#mask-4)" fill="#FFF300">
                    <rect id="Rectangle-19-Copy-31" x="0" y="0" width="64" height="64"></rect>
                </g>
            </g>
        </g>
    </g>
</svg>