<?xml version="1.0" encoding="UTF-8"?>
<svg width="64px" height="64px" viewBox="0 0 64 64" version="1.1" xmlns="http://www.w3.org/2000/svg" xmlns:xlink="http://www.w3.org/1999/xlink">
    <!-- Generator: Sketch 47.1 (45422) - http://www.bohemiancoding.com/sketch -->
    <title>wd-python</title>
    <desc>Created with Sketch.</desc>
    <defs>
        <polygon id="path-1" points="0 31.99985 0 0 64 0 64 31.99985 64 63.9997 0 63.9997"></polygon>
        <path d="M26.9512,20.0225 C25.6802,20.0225 24.6502,18.9935 24.6502,17.7195 C24.6502,16.4485 25.6802,15.4175 26.9512,15.4175 C28.2242,15.4175 29.2542,16.4485 29.2542,17.7195 C29.2562,18.9915 28.2242,20.0225 26.9512,20.0225 M38.4962,30.7055 C41.5342,29.3295 41.9862,18.8505 40.1952,15.7635 C37.8542,11.7345 26.7282,12.5435 23.2152,15.4235 C22.8122,16.8545 22.8542,19.4505 22.8732,21.5145 L33.9002,21.5145 L33.9002,22.4805 L22.8752,22.4805 C22.8752,22.4955 17.9672,22.5105 17.9672,22.5105 C9.5032,22.5105 9.6792,40.8925 20.8472,40.8925 C20.8472,40.8925 21.2572,36.8215 21.9742,34.7815 C24.1912,28.4845 33.5012,32.9705 38.4962,30.7055 M36.3862,43.3691 C37.6572,43.3691 38.6892,44.3991 38.6892,45.6731 C38.6892,46.9431 37.6572,47.9731 36.3862,47.9731 C35.1152,47.9731 34.0852,46.9431 34.0852,45.6731 C34.0852,44.3991 35.1152,43.3691 36.3862,43.3691 M42.7692,22.8981 C42.7692,22.8981 42.4762,26.9721 41.7592,29.0101 C39.5422,35.3051 30.2342,30.8201 25.2372,33.0861 C22.2022,34.4621 21.7442,44.9401 23.5392,48.0271 C25.8772,52.0581 37.0032,51.2491 40.5182,48.3671 C40.9222,46.9381 40.8792,44.3431 40.8612,42.2791 L29.8312,42.2791 L29.8312,41.3121 L40.8562,41.3121 C40.8562,41.2991 46.2902,41.2821 46.2902,41.2821 C54.0902,41.2821 54.7892,22.8981 42.7692,22.8981" id="path-3"></path>
    </defs>
    <g id="Page-1" stroke="none" stroke-width="1" fill="none" fill-rule="evenodd">
        <g id="wd-python">
            <g>
                <g id="Group-3">
                    <mask id="mask-2" fill="white">
                        <use xlink:href="#path-1"></use>
                    </mask>
                    <g id="Clip-2"></g>
                    <path d="M64,50.8047 L64,13.1957 C64,5.9377 58.062,-0.0003 50.805,-0.0003 L13.195,-0.0003 C5.938,-0.0003 0,5.9377 0,13.1957 L0,50.8047 C0,58.0627 5.938,63.9997 13.195,63.9997 L50.805,63.9997 C58.062,63.9997 64,58.0627 64,50.8047" id="Fill-1" fill="#00ff00" mask="url(#mask-2)"></path>
                </g>
                <mask id="mask-4" fill="white">
                    <use xlink:href="#path-3"></use>
                </mask>
                <use id="Fill-4" fill="#000000" xlink:href="#path-3"></use>
                <g id="99.Color/State/Blue" mask="url(#mask-4)" fill="#ff0000">
                    <rect id="Rectangle-19-Copy-31" x="0" y="0" width="64" height="64"></rect>
                </g>
            </g>
        </g>
    </g>
</svg>