<?xml version="1.0" encoding="UTF-8"?>
<svg width="64px" height="64px" viewBox="0 0 64 64" version="1.1" xmlns="http://www.w3.org/2000/svg" xmlns:xlink="http://www.w3.org/1999/xlink">
    <defs>
        <polygon id="path-1" points="0 31.99985 0 0 64 0 64 31.99985 64 63.9997 0 63.9997"></polygon>
        <path d="M28,36 L31,36 L31,33 L28,33 L28,36 Z M26,38 L33,38 L33,31 L26,31 L26,38 Z M19.5,42.8286 L20.672,43.9996 L19.5,45.1716 L18.328,43.9996 L19.5,42.8286 Z M23.5,43.9996 L19.5,39.9996 L15.5,43.9996 L19.5,47.9996 L23.5,43.9996 Z M19.5,33 C20.327,33 21,33.673 21,34.5 C21,35.327 20.327,36 19.5,36 C18.673,36 18,35.327 18,34.5 C18,33.673 18.673,33 19.5,33 M19.5,38 C21.433,38 23,36.433 23,34.5 C23,32.567 21.433,31 19.5,31 C17.567,31 16,32.567 16,34.5 C16,36.433 17.567,38 19.5,38 M29.5,43 C30.327,43 31,43.673 31,44.5 C31,45.327 30.327,46 29.5,46 C28.673,46 28,45.327 28,44.5 C28,43.673 28.673,43 29.5,43 M29.5,48 C31.433,48 33,46.433 33,44.5 C33,42.567 31.433,41 29.5,41 C27.567,41 26,42.567 26,44.5 C26,46.433 27.567,48 29.5,48 M46,40 C43.795,40 42,38.206 42,36 C42,33.794 43.795,32 46,32 C48.206,32 50,33.794 50,36 C50,38.206 48.206,40 46,40 L46,40 Z M41.828,18 L46,13.829 L50.172,18 L46,22.171 L41.828,18 Z M14,50 L35,50 L35,29 L14,29 L14,50 Z M28,22 C25.795,22 24,20.206 24,18 C24,15.794 25.795,14 28,14 C30.206,14 32,15.794 32,18 C32,20.206 30.206,22 28,22 L28,22 Z M47,30.09 L47,24 L53,18 L46,11 L40,17 L33.91,17 C33.433,14.164 30.973,12 28,12 C24.687,12 22,14.687 22,18 C22,21.313 24.687,24 28,24 C30.973,24 33.433,21.836 33.91,19 L40,19 L41.637,20.636 C40.479,20.915 39.473,21.466 38.625,22.283 C37.498,23.37 36.85,24.759 36.476,26 L11,26 L11,53 L38,53 L38,28.596 C38.097,27.566 38.483,25.192 40.021,23.715 C40.905,22.866 42.026,22.452 43.441,22.441 L45,24 L45,30.09 C42.163,30.567 40,33.028 40,36 C40,39.313 42.687,42 46,42 C49.313,42 52,39.313 52,36 C52,33.028 49.837,30.567 47,30.09 L47,30.09 Z M46,34 C44.896,34 44,34.896 44,36 C44,37.104 44.896,38 46,38 C47.104,38 48,37.104 48,36 C48,34.896 47.104,34 46,34" id="path-3"></path>
    </defs>
    <g id="Page-1" stroke="none" stroke-width="1" fill="none" fill-rule="evenodd">
        <g id="wd-sub-workflow">
            <g>
                <g id="Group-3">
                    <mask id="mask-2" fill="white">
                        <use xlink:href="#path-1"></use>
                    </mask>
                    <g id="Clip-2"></g>
                    <path d="M64,50.8047 L64,13.1957 C64,5.9377 58.063,-0.0003 50.805,-0.0003 L13.195,-0.0003 C5.937,-0.0003 0,5.9377 0,13.1957 L0,50.8047 C0,58.0617 5.937,63.9997 13.195,63.9997 L50.805,63.9997 C58.063,63.9997 64,58.0617 64,50.8047" id="Fill-1" fill="#EAEAEA" mask="url(#mask-2)"></path>
                </g>
                <mask id="mask-4" fill="white">
                    <use xlink:href="#path-3"></use>
                </mask>
                <g id="99.Color/State/Blue" mask="url(#mask-4)" fill="#0080D7">
                    <rect id="Rectangle-19-Copy-31" x="0" y="0" width="64" height="64"></rect>
                </g>
            </g>
        </g>
    </g>
</svg>