<?xml version="1.0" encoding="UTF-8"?>
<svg width="64px" height="64px" viewBox="0 0 64 64" version="1.1" xmlns="http://www.w3.org/2000/svg" xmlns:xlink="http://www.w3.org/1999/xlink">
    <!-- Generator: Sketch 47.1 (45422) - http://www.bohemiancoding.com/sketch -->
    <title>wd-sqoop</title>
    <desc>Created with Sketch.</desc>
    <defs>
        <polygon id="path-1" points="0 31.99985 0 0 64 0 64 31.99985 64 63.9997 0 63.9997"></polygon>
        <path d="M15.0947,32.0049 C15.0947,34.3059 13.2227,36.1779 10.9217,36.1779 C10.5577,36.1779 10.2007,36.1319 9.8567,36.0399 L10.1957,35.7009 L10.8687,35.0279 L9.9167,35.0279 L8.0487,35.0279 C7.2207,34.2399 6.7477,33.1469 6.7477,32.0049 C6.7477,29.7039 8.6197,27.8319 10.9217,27.8319 C11.3867,27.8319 11.8527,27.9119 12.2947,28.0669 L11.5787,28.7819 L10.9067,29.4559 L11.8587,29.4559 L14.2197,29.4559 C14.7847,30.1859 15.0947,31.0839 15.0947,32.0049 L15.0947,32.0049 Z M21.9477,36.4279 L21.8617,36.3469 L21.7387,36.2309 L21.5697,36.2399 L21.4717,36.2459 C19.1727,36.2419 17.3047,34.3709 17.3047,32.0719 C17.3047,29.8799 19.0417,28.0459 21.2117,27.9079 L25.4617,32.1289 L25.6507,32.3149 L25.6517,32.5799 L25.6517,39.4599 L22.1767,39.4599 L22.1767,37.4509 C22.1767,36.8259 22.1667,36.6359 21.9477,36.4279 L21.9477,36.4279 Z M36.2067,32.0719 C36.2067,34.3729 34.3347,36.2459 32.0337,36.2459 C29.7327,36.2459 27.8607,34.3729 27.8607,32.0719 C27.8607,29.7709 29.7327,27.8989 32.0337,27.8989 C34.3347,27.8989 36.2067,29.7709 36.2067,32.0719 L36.2067,32.0719 Z M48.4347,31.8039 L48.4347,31.8049 L48.4347,31.8039 Z M57.2517,32.4109 C57.2517,34.7119 55.3797,36.5839 53.0777,36.5839 L52.9947,36.5769 L52.8237,36.5659 L52.6987,36.6819 L52.6137,36.7619 C52.3897,36.9709 52.3797,37.1609 52.3797,37.7889 L52.3797,39.7979 L48.9057,39.7979 L48.9057,32.9179 L48.9057,32.6529 L49.0947,32.4669 L53.3437,28.2459 C55.5137,28.3839 57.2517,30.2189 57.2517,32.4109 L57.2517,32.4109 Z M46.6957,32.0049 C46.6957,34.3059 44.8237,36.1779 42.5227,36.1779 C40.2207,36.1779 38.3487,34.3059 38.3487,32.0049 C38.3487,29.7039 40.2207,27.8319 42.5227,27.8319 C44.8237,27.8319 46.6957,29.7039 46.6957,32.0049 L46.6957,32.0049 Z M53.0777,26.9069 L52.9667,26.9069 L52.8047,26.9069 L52.6887,27.0219 L48.1577,31.5239 L47.9927,31.6869 C47.8237,28.8019 45.4487,26.5019 42.5227,26.5019 C40.0287,26.5019 37.9407,28.1789 37.2677,30.4579 C36.5727,28.2139 34.5027,26.5689 32.0337,26.5689 C29.2317,26.5689 26.9377,28.6829 26.5987,31.3949 L26.3997,31.1849 L21.8667,26.6839 L21.7517,26.5689 L21.5887,26.5689 L21.4777,26.5689 C18.9677,26.5689 16.8687,28.2679 16.2097,30.5679 C15.9877,29.7549 15.5997,28.9899 15.0277,28.3479 L14.9467,28.2569 L14.8287,28.1259 L14.6527,28.1259 L14.1167,28.1259 L14.1427,28.0999 L14.4977,27.7449 L14.0697,27.4839 L13.7757,27.3049 C12.9107,26.7789 11.9247,26.5019 10.9217,26.5019 C7.8867,26.5019 5.4177,28.9699 5.4177,32.0049 C5.4177,33.6209 6.1267,35.1499 7.3637,36.1999 L7.4397,36.2639 L7.5497,36.3579 L7.6577,36.3579 L7.5627,36.4539 L8.0357,36.7029 L8.3617,36.8739 C9.1597,37.2949 10.0217,37.5079 10.9217,37.5079 C13.4287,37.5079 15.5267,35.8119 16.1877,33.5139 C16.7677,35.6509 18.5767,37.2809 20.8467,37.5399 L20.8467,39.5839 C20.8467,40.2489 21.3877,40.7899 22.0527,40.7899 L25.7747,40.7899 C26.4397,40.7899 26.9807,40.2489 26.9807,39.5839 L26.9807,34.2439 C27.8247,36.2009 29.7707,37.5749 32.0337,37.5749 C34.5277,37.5749 36.6157,35.8979 37.2877,33.6189 C37.9837,35.8629 40.0527,37.5079 42.5227,37.5079 C44.7847,37.5079 46.7317,36.1329 47.5747,34.1759 L47.5747,39.9219 C47.5747,40.5869 48.1157,41.1279 48.7817,41.1279 L52.5027,41.1279 C53.1687,41.1279 53.7097,40.5869 53.7097,39.9219 L53.7097,37.8779 C56.4707,37.5639 58.5817,35.2309 58.5817,32.4109 C58.5817,29.3759 56.1137,26.9069 53.0777,26.9069 L53.0777,26.9069 Z" id="path-3"></path>
    </defs>
    <g id="Page-1" stroke="none" stroke-width="1" fill="none" fill-rule="evenodd">
        <g id="wd-sqoop">
            <g>
                <g id="Group-3">
                    <mask id="mask-2" fill="white">
                        <use xlink:href="#path-1"></use>
                    </mask>
                    <g id="Clip-2"></g>
                    <path d="M64,50.8047 L64,13.1957 C64,5.9377 58.063,-0.0003 50.805,-0.0003 L13.195,-0.0003 C5.937,-0.0003 0,5.9377 0,13.1957 L0,50.8047 C0,58.0617 5.937,63.9997 13.195,63.9997 L50.805,63.9997 C58.063,63.9997 64,58.0617 64,50.8047" id="Fill-1" fill="#EAEAEA" mask="url(#mask-2)"></path>
                </g>
                <mask id="mask-4" fill="white">
                    <use xlink:href="#path-3"></use>
                </mask>
                <use id="Fill-4" fill="#000000" xlink:href="#path-3"></use>
                <g id="99.Color/State/Blue" mask="url(#mask-4)" fill="#0080D7">
                    <rect id="Rectangle-19-Copy-31" x="0" y="0" width="64" height="64"></rect>
                </g>
            </g>
        </g>
    </g>
</svg>