<?xml version="1.0" encoding="UTF-8"?>
<svg width="64px" height="64px" viewBox="0 0 64 64" version="1.1" xmlns="http://www.w3.org/2000/svg" xmlns:xlink="http://www.w3.org/1999/xlink">
    <defs>
        <polygon id="path-1" points="0 31.99985 0 0 64 0 64 31.99985 64 63.9997 0 63.9997"></polygon>
        <path d="M55.0791,32.1313 C55.0311,32.0283 55.0101,31.9773 54.9831,31.9273 C54.2861,30.6023 53.5911,29.2753 52.8871,27.9533 C52.8161,27.8203 52.8251,27.7413 52.9221,27.6283 C54.0311,26.3323 55.1341,25.0323 56.2381,23.7333 C56.2771,23.6873 56.3121,23.6383 56.3271,23.5573 C56.0041,23.6423 55.6811,23.7253 55.3581,23.8103 C54.0181,24.1653 52.6791,24.5193 51.3401,24.8793 C51.2151,24.9133 51.1581,24.8763 51.0971,24.7733 C50.3361,23.5023 49.5701,22.2343 48.8071,20.9653 C48.7671,20.8993 48.7251,20.8353 48.6411,20.7803 C48.5791,21.1183 48.5171,21.4573 48.4561,21.7963 C48.2431,22.9913 48.0311,24.1873 47.8181,25.3833 C47.7961,25.5123 47.7641,25.6413 47.7531,25.7713 C47.7421,25.8943 47.6791,25.9403 47.5671,25.9753 C45.9881,26.4713 44.4101,26.9713 42.8331,27.4713 C42.7641,27.4933 42.6961,27.5213 42.6221,27.5893 C43.9121,28.1023 45.2031,28.6153 46.5141,29.1353 C46.4661,29.1733 46.4341,29.2023 46.3991,29.2253 C45.5931,29.7473 44.7851,30.2673 43.9791,30.7923 C43.8841,30.8553 43.8071,30.8633 43.6991,30.8153 C42.7351,30.3813 41.7671,29.9553 40.8031,29.5243 C40.3691,29.3313 39.9791,29.0733 39.6761,28.7023 C38.9901,27.8633 39.1251,26.9083 40.0401,26.3243 C40.3391,26.1333 40.6791,25.9903 41.0171,25.8803 C42.5631,25.3763 44.1161,24.8903 45.6681,24.4033 C45.7981,24.3623 45.8581,24.3043 45.8831,24.1633 C46.0891,22.9663 46.3041,21.7703 46.5191,20.5753 C46.6351,19.9363 46.6961,19.2803 47.0071,18.6953 C47.1261,18.4693 47.2691,18.2493 47.4391,18.0603 C48.0561,17.3773 48.9151,17.3503 49.5661,18.0023 C49.7861,18.2213 49.9751,18.4813 50.1391,18.7463 C50.8561,19.9163 51.5611,21.0933 52.2641,22.2733 C52.3471,22.4123 52.4221,22.4403 52.5751,22.3993 C54.3061,21.9353 56.0371,21.4793 57.7691,21.0213 C58.1271,20.9273 58.4881,20.8923 58.8541,20.9613 C59.6521,21.1103 60.0021,21.7183 59.7311,22.4893 C59.6081,22.8403 59.3961,23.1373 59.1581,23.4173 C57.9501,24.8393 56.7431,26.2613 55.5301,27.6793 C55.4321,27.7953 55.4301,27.8793 55.4981,28.0083 C56.2221,29.3713 56.9381,30.7383 57.6581,32.1033 C57.8301,32.4303 57.9621,32.7693 57.9661,33.1453 C57.9751,33.9983 57.3501,34.6973 56.5021,34.8213 C56.0261,34.8913 55.5851,34.7893 55.1411,34.6523 C54.0561,34.3173 52.9691,33.9873 51.8811,33.6603 C51.7801,33.6303 51.7421,33.5903 51.7251,33.4823 C51.6001,32.7163 51.4631,31.9533 51.3311,31.1893 C51.3271,31.1683 51.3331,31.1453 51.3371,31.0983 C52.5741,31.4403 53.8021,31.7783 55.0791,32.1313 Z M52.9639,43.2759 C51.9849,43.2739 51.0079,43.2699 50.0289,43.2739 C49.8999,43.2739 49.8259,43.2359 49.7549,43.1269 C48.5969,41.3619 47.4329,39.6009 46.2709,37.8399 C46.2339,37.7839 46.1929,37.7299 46.1279,37.6349 C45.8779,39.5379 45.6329,41.3979 45.3879,43.2629 L42.8259,43.2629 C42.8559,43.0129 42.8819,42.7719 42.9129,42.5309 L43.6659,36.8009 C43.9049,34.9759 44.1449,33.1509 44.3879,31.3259 C44.3959,31.2719 44.4319,31.2029 44.4759,31.1739 C45.3579,30.5989 46.2419,30.0289 47.1269,29.4589 C47.1399,29.4499 47.1569,29.4489 47.2029,29.4369 C46.9359,31.4769 46.6699,33.5019 46.4039,35.5269 C46.4149,35.5339 46.4259,35.5409 46.4359,35.5479 C47.8239,34.0099 49.2119,32.4719 50.6299,30.8999 C50.6709,31.1369 50.7059,31.3389 50.7409,31.5419 C50.8409,32.1219 50.9359,32.7029 51.0419,33.2819 C51.0639,33.3989 51.0319,33.4709 50.9549,33.5519 C50.0579,34.4909 49.1629,35.4339 48.2689,36.3759 C48.2299,36.4169 48.1929,36.4589 48.1479,36.5079 C48.1759,36.5539 48.1999,36.5969 48.2299,36.6379 C49.7729,38.8049 51.3169,40.9709 52.8609,43.1359 C52.8899,43.1759 52.9299,43.2069 52.9639,43.2409 L52.9639,43.2759 Z M22.5947,37.6436 C22.5557,37.4436 22.5287,37.1506 22.4397,36.8766 C22.0097,35.5536 20.6517,34.8276 19.2457,35.1546 C17.7027,35.5136 16.6017,36.7256 16.4417,38.2996 C16.3237,39.4636 16.9497,40.5856 18.1157,41.0066 C19.0557,41.3456 19.9587,41.2036 20.7987,40.7006 C21.9107,40.0326 22.5147,39.0416 22.5947,37.6436 M15.8217,42.5646 C15.7457,43.1336 15.6727,43.6706 15.6027,44.2076 C15.5087,44.9216 15.4147,45.6356 15.3247,46.3506 C15.3147,46.4336 15.2887,46.4706 15.1997,46.4696 C14.4957,46.4666 13.7927,46.4676 13.0887,46.4666 C13.0727,46.4666 13.0567,46.4576 13.0187,46.4466 C13.0607,46.1096 13.1027,45.7716 13.1467,45.4346 C13.3017,44.2496 13.4567,43.0656 13.6147,41.8816 C13.7947,40.5276 13.9377,39.1666 14.1677,37.8216 C14.5767,35.4396 16.5977,33.3866 18.9687,32.8756 C20.3437,32.5796 21.6587,32.7166 22.8597,33.4906 C24.0567,34.2616 24.7427,35.3806 24.8997,36.7896 C25.1207,38.7806 24.3877,40.4336 22.9737,41.8006 C22.0457,42.6986 20.9347,43.2686 19.6527,43.4616 C18.3317,43.6606 17.0907,43.4406 15.9767,42.6626 C15.9357,42.6336 15.8917,42.6086 15.8217,42.5646 Z M14.6748,31.2451 C13.8858,31.8331 13.1248,32.3991 12.3608,32.9681 C12.2368,32.7731 12.1268,32.5801 11.9988,32.4001 C11.6668,31.9361 11.2548,31.5901 10.6558,31.5481 C10.1578,31.5141 9.7318,31.6781 9.3928,32.0451 C9.0898,32.3731 9.0498,32.8401 9.3338,33.2111 C9.6458,33.6201 9.9868,34.0071 10.3358,34.3851 C10.9138,35.0111 11.5178,35.6141 12.0918,36.2441 C12.6138,36.8171 13.0308,37.4601 13.1588,38.2431 C13.3118,39.1751 13.1268,40.0611 12.6858,40.8801 C11.8698,42.3951 10.5868,43.2741 8.8918,43.5491 C8.1428,43.6711 7.3968,43.6461 6.6658,43.4321 C5.6958,43.1461 5.0218,42.5111 4.5878,41.6141 C4.4348,41.2961 4.3178,40.9621 4.1778,40.6221 C5.0268,40.1671 5.8508,39.7261 6.6878,39.2791 C6.7168,39.3491 6.7378,39.4071 6.7648,39.4611 C6.9068,39.7461 7.0238,40.0491 7.2008,40.3121 C7.7248,41.0911 8.5708,41.3281 9.4288,40.9431 C9.6498,40.8441 9.8628,40.7051 10.0428,40.5441 C10.5958,40.0531 10.6998,39.3701 10.2908,38.7521 C10.0548,38.3961 9.7608,38.0781 9.4748,37.7601 C8.7898,37.0001 8.0768,36.2641 7.4088,35.4901 C6.9468,34.9561 6.6338,34.3341 6.5348,33.6201 C6.4268,32.8391 6.5828,32.1031 6.9888,31.4461 C7.9978,29.8131 9.4648,28.9641 11.4048,29.0341 C12.5108,29.0741 13.3918,29.5921 14.0758,30.4511 C14.2788,30.7051 14.4678,30.9701 14.6748,31.2451 Z M33.416,40.0107 C33.287,40.9947 33.166,41.9287 33.04,42.8637 C33.033,42.9107 32.996,42.9747 32.956,42.9937 C31.046,43.8777 28.531,43.7547 26.963,41.9737 C26.12,41.0167 25.767,39.8817 25.819,38.6177 C25.942,35.6927 28.367,33.1397 31.267,32.7827 C32.961,32.5737 34.447,33.0317 35.595,34.3477 C36.377,35.2447 36.738,36.3157 36.685,37.4967 C36.649,38.2777 36.527,39.0547 36.431,39.8317 C36.293,40.9317 36.143,42.0307 35.997,43.1307 C35.991,43.1697 35.983,43.2077 35.975,43.2577 L33.69,43.2577 C33.721,43.0047 33.749,42.7577 33.78,42.5107 C33.946,41.2407 34.128,39.9727 34.273,38.7007 C34.363,37.9087 34.307,37.1217 33.944,36.3877 C33.559,35.6087 32.912,35.1957 32.062,35.1057 C30.304,34.9197 28.63,36.1417 28.254,37.8727 C28.007,39.0157 28.397,40.1117 29.308,40.7167 C30.194,41.3067 31.145,41.3087 32.111,40.9267 C32.602,40.7317 33.019,40.4257 33.416,40.0107 Z M43.0361,33.0049 C42.9321,33.7969 42.8291,34.5769 42.7241,35.3739 C42.2411,35.3739 41.7671,35.3709 41.2941,35.3749 C40.9101,35.3779 40.5591,35.6259 40.4441,35.9839 C40.3991,36.1239 40.3831,36.2739 40.3631,36.4209 C40.1231,38.2399 39.8851,40.0589 39.6461,41.8779 C39.5861,42.3369 39.5271,42.7949 39.4671,43.2609 L37.0891,43.2609 C37.1341,42.9109 37.1761,42.5729 37.2201,42.2339 C37.3751,41.0559 37.5291,39.8769 37.6851,38.6989 C37.8211,37.6789 37.9411,36.6569 38.1001,35.6409 C38.3141,34.2789 39.6701,33.0699 41.0441,33.0099 C41.7001,32.9819 42.3581,33.0049 43.0361,33.0049 Z M55.7676,43.2607 L55.7676,42.2567 L55.7616,42.2567 L55.3686,43.2607 L55.2426,43.2607 L54.8486,42.2567 L54.8426,42.2567 L54.8426,43.2607 L54.6436,43.2607 L54.6436,42.0587 L54.9506,42.0587 L55.3096,42.9717 L55.6626,42.0587 L55.9656,42.0587 L55.9656,43.2607 L55.7676,43.2607 Z M54.0226,42.2187 L54.0226,43.2607 L53.8246,43.2607 L53.8246,42.2187 L53.4476,42.2187 L53.4476,42.0587 L54.3996,42.0587 L54.3996,42.2187 L54.0226,42.2187 Z M17.8604,29.5571 L18.4504,29.5571 L18.3104,28.6641 L17.8604,29.5571 Z M18.5434,30.1341 L17.5614,30.1341 L17.2504,30.7441 L16.5554,30.7441 L18.0884,27.8811 L18.7574,27.8811 L19.2794,30.7441 L18.6344,30.7441 L18.5434,30.1341 Z M22.0518,28.458 L21.7028,28.458 L21.5848,29.119 L21.9348,29.119 C22.1458,29.119 22.3138,28.98 22.3138,28.719 C22.3138,28.546 22.2078,28.458 22.0518,28.458 L22.0518,28.458 Z M21.2058,27.881 L22.1238,27.881 C22.6038,27.881 22.9408,28.167 22.9408,28.66 C22.9408,29.279 22.5028,29.696 21.8798,29.696 L21.4848,29.696 L21.2988,30.744 L20.7008,30.744 L21.2058,27.881 Z M24.9707,29.5571 L25.5607,29.5571 L25.4217,28.6641 L24.9707,29.5571 Z M25.6537,30.1341 L24.6717,30.1341 L24.3607,30.7441 L23.6657,30.7441 L25.1987,27.8811 L25.8677,27.8811 L26.3897,30.7441 L25.7457,30.7441 L25.6537,30.1341 Z M29.5313,30.6431 C29.3293,30.7351 29.1063,30.7901 28.8833,30.7901 C28.1253,30.7901 27.6493,30.2221 27.6493,29.5101 C27.6493,28.6011 28.4163,27.8351 29.3253,27.8351 C29.5523,27.8351 29.7593,27.8901 29.9273,27.9821 L29.8433,28.6681 C29.7173,28.5291 29.5143,28.4331 29.2613,28.4331 C28.7403,28.4331 28.2773,28.9041 28.2773,29.4521 C28.2773,29.8681 28.5383,30.1921 28.9503,30.1921 C29.2033,30.1921 29.4473,30.0961 29.6113,29.9611 L29.5313,30.6431 Z M33.1846,29.5903 L31.9386,29.5903 L31.7366,30.7443 L31.1386,30.7443 L31.6436,27.8813 L32.2416,27.8813 L32.0386,29.0133 L33.2856,29.0133 L33.4876,27.8813 L34.0846,27.8813 L33.5806,30.7443 L32.9826,30.7443 L33.1846,29.5903 Z M35.377,30.7441 L35.882,27.8811 L37.469,27.8811 L37.368,28.4581 L36.379,28.4581 L36.277,29.0141 L37.187,29.0141 L37.086,29.5901 L36.177,29.5901 L36.075,30.1671 L37.064,30.1671 L36.964,30.7441 L35.377,30.7441 Z" id="path-3"></path>
    </defs>
    <g id="Page-1" stroke="none" stroke-width="1" fill="none" fill-rule="evenodd">
        <g id="wd-spark">
            <g>
                <g id="Group-3">
                    <mask id="mask-2" fill="white">
                        <use xlink:href="#path-1"></use>
                    </mask>
                    <g id="Clip-2"></g>
                    <path d="M64,50.8047 L64,13.1957 C64,5.9377 58.063,-0.0003 50.805,-0.0003 L13.195,-0.0003 C5.938,-0.0003 0,5.9377 0,13.1957 L0,50.8047 C0,58.0617 5.938,63.9997 13.195,63.9997 L50.805,63.9997 C58.063,63.9997 64,58.0617 64,50.8047" id="Fill-1" fill="#EAEAEA" mask="url(#mask-2)"></path>
                </g>
                <mask id="mask-4" fill="white">
                    <use xlink:href="#path-3"></use>
                </mask>
                <g id="99.Color/State/Blue" mask="url(#mask-4)" fill="#0080D7">
                    <rect id="Rectangle-19-Copy-31" x="0" y="0" width="64" height="64"></rect>
                </g>
            </g>
        </g>
    </g>
</svg>