<?xml version="1.0" encoding="UTF-8"?>
<svg width="64px" height="64px" viewBox="0 0 64 64" version="1.1" xmlns="http://www.w3.org/2000/svg" xmlns:xlink="http://www.w3.org/1999/xlink">
    <!-- Generator: Sketch 47.1 (45422) - http://www.bohemiancoding.com/sketch -->
    <title>wd-ssh</title>
    <desc>Created with Sketch.</desc>
    <defs>
        <polygon id="path-1" points="0 31.99985 0 0 64 0 64 31.99985 64 63.9997 0 63.9997"></polygon>
        <path d="M43.0693,51.0347 L40.9983,51.0347 L40.9983,47.3337 L38.0283,47.3337 L38.0283,51.0347 L35.9573,51.0347 L35.9573,41.8367 L38.0283,41.8367 L38.0283,45.4957 L40.9983,45.4957 L40.9983,41.8367 L43.0693,41.8367 L43.0693,51.0347 Z M31.1333,51.1727 C30.0703,51.1727 28.9523,50.9377 28.1653,50.5787 L28.5103,48.9767 C29.3523,49.2387 30.2083,49.4187 31.1623,49.4187 C32.2243,49.4187 32.4323,49.2117 32.4323,48.4377 C32.4323,47.6097 32.3903,47.5127 30.8853,47.1817 C28.6623,46.6987 28.3303,46.2567 28.3303,44.2667 C28.3303,42.4307 28.9793,41.6987 31.5063,41.6987 C32.3073,41.6987 33.2753,41.7817 34.2973,42.0027 L34.0893,43.7417 C33.0403,43.5627 32.3633,43.4797 31.5343,43.4797 C30.6083,43.4797 30.4013,43.6467 30.4013,44.3227 C30.4013,45.2057 30.4433,45.2207 31.8933,45.5657 C34.3793,46.1597 34.5043,46.6427 34.5043,48.4517 C34.5043,50.2757 33.9103,51.1727 31.1333,51.1727 L31.1333,51.1727 Z M23.6163,51.1727 C22.5523,51.1727 21.4343,50.9377 20.6473,50.5787 L20.9933,48.9767 C21.8353,49.2387 22.6903,49.4187 23.6443,49.4187 C24.7073,49.4187 24.9153,49.2117 24.9153,48.4377 C24.9153,47.6097 24.8733,47.5127 23.3683,47.1817 C21.1443,46.6987 20.8123,46.2567 20.8123,44.2667 C20.8123,42.4307 21.4623,41.6987 23.9893,41.6987 C24.7903,41.6987 25.7573,41.7817 26.7793,42.0027 L26.5713,43.7417 C25.5223,43.5627 24.8453,43.4797 24.0163,43.4797 C23.0903,43.4797 22.8833,43.6467 22.8833,44.3227 C22.8833,45.2057 22.9253,45.2207 24.3773,45.5657 C26.8613,46.1597 26.9863,46.6427 26.9863,48.4517 C26.9863,50.2757 26.3923,51.1727 23.6163,51.1727 L23.6163,51.1727 Z M42.0623,39.3197 C45.8483,39.3197 48.9473,42.4177 48.9473,46.2037 C48.9473,49.9907 45.8483,53.0887 42.0623,53.0887 L21.9373,53.0887 C18.1513,53.0887 15.0523,49.9907 15.0523,46.2037 C15.0523,42.4177 18.1513,39.3197 21.9373,39.3197 L42.0623,39.3197 Z M15.958,30.5269 L14.128,27.3599 L25.837,20.8399 L14.242,14.3549 L15.958,11.1899 L30.185,19.4269 L30.185,22.2499 L15.958,30.5269 Z M32,33 L32,30 L49,30 L49,33 L32,33 Z" id="path-3"></path>
    </defs>
    <g id="Page-1" stroke="none" stroke-width="1" fill="none" fill-rule="evenodd">
        <g id="wd-ssh">
            <g>
                <g id="Group-3">
                    <mask id="mask-2" fill="white">
                        <use xlink:href="#path-1"></use>
                    </mask>
                    <g id="Clip-2"></g>
                    <path d="M64,50.8047 L64,13.1957 C64,5.9377 58.063,-0.0003 50.805,-0.0003 L13.195,-0.0003 C5.938,-0.0003 0,5.9377 0,13.1957 L0,50.8047 C0,58.0617 5.938,63.9997 13.195,63.9997 L50.805,63.9997 C58.063,63.9997 64,58.0617 64,50.8047" id="Fill-1" fill="#EAEAEA" mask="url(#mask-2)"></path>
                </g>
                <mask id="mask-4" fill="white">
                    <use xlink:href="#path-3"></use>
                </mask>
                <use id="Fill-4" fill="#000000" xlink:href="#path-3"></use>
                <g id="99.Color/State/Blue" mask="url(#mask-4)" fill="#0080D7">
                    <rect id="Rectangle-19-Copy-31" x="0" y="0" width="64" height="64"></rect>
                </g>
            </g>
        </g>
    </g>
</svg>