<?xml version="1.0" encoding="UTF-8"?>
<svg width="64px" height="64px" viewBox="0 0 64 64" version="1.1" xmlns="http://www.w3.org/2000/svg" xmlns:xlink="http://www.w3.org/1999/xlink">
    <!-- Generator: Sketch 47.1 (45422) - http://www.bohemiancoding.com/sketch -->
    <title>wd-svm</title>
    <desc>Created with Sketch.</desc>
    <defs>
        <polygon id="path-1" points="0 31.99985 0 0 64 0 64 31.99985 64 63.9997 0 63.9997"></polygon>
        <path d="M51.4082,24.9131 L13.4082,41.9131 L12.5922,40.0871 L50.5922,23.0871 L51.4082,24.9131 Z M14.5733,33.8437 L13.2043,34.4557 L12.7963,33.5437 L14.1653,32.9317 L14.5733,33.8437 Z M20.8365,29.9473 L23.1555,28.9093 C23.0635,28.6213 23.0005,28.3193 23.0005,28.0003 C23.0005,26.3433 24.3435,25.0003 26.0005,25.0003 C27.6565,25.0003 29.0005,26.3433 29.0005,28.0003 C29.0005,29.6573 27.6565,31.0003 26.0005,31.0003 C25.0215,31.0003 24.1605,30.5243 23.6135,29.8003 L21.2445,30.8593 L20.8365,29.9473 Z M16.4795,32.9912 L16.0715,32.0792 L18.9305,30.8002 L19.3385,31.7122 L16.4795,32.9912 Z M33.6338,25.3164 L30.7748,26.5954 L30.3668,25.6834 L33.2258,24.4044 L33.6338,25.3164 Z M43.1636,21.0537 L40.3046,22.3317 L39.8966,21.4197 L42.7556,20.1417 L43.1636,21.0537 Z M45.0699,20.2002 L44.6619,19.2882 L47.5209,18.0102 L47.9289,18.9222 L45.0699,20.2002 Z M35.1314,23.5518 L37.9904,22.2728 L38.3994,23.1848 L35.5394,24.4638 L35.1314,23.5518 Z M51.2041,17.4561 L49.8351,18.0681 L49.4271,17.1561 L50.7961,16.5441 L51.2041,17.4561 Z M12.7959,47.5439 L14.1649,46.9319 L14.5729,47.8439 L13.2039,48.4559 L12.7959,47.5439 Z M30.7749,40.5957 L30.3669,39.6837 L33.2259,38.4047 L33.6339,39.3167 L30.7749,40.5957 Z M45.0699,34.2002 L44.6619,33.2882 L47.5209,32.0102 L47.9289,32.9222 L45.0699,34.2002 Z M28.4605,40.5361 L28.8685,41.4481 L26.9165,42.3221 C26.9665,42.5411 27.0005,42.7651 27.0005,43.0001 C27.0005,44.6571 25.6565,46.0001 24.0005,46.0001 C22.9855,46.0001 22.0925,45.4931 21.5495,44.7231 L21.2445,44.8591 L20.8365,43.9471 L21.1275,43.8171 C21.0525,43.5561 21.0005,43.2851 21.0005,43.0001 C21.0005,41.3431 22.3435,40.0001 24.0005,40.0001 C25.0665,40.0001 25.9985,40.5601 26.5295,41.4001 L28.4605,40.5361 Z M16.0713,46.0791 L18.9303,44.8001 L19.3383,45.7121 L16.4793,46.9911 L16.0713,46.0791 Z M49.4268,31.1562 L50.7958,30.5442 L51.2038,31.4562 L49.8348,32.0682 L49.4268,31.1562 Z M17,20 C15.343,20 14,18.657 14,17 C14,15.343 15.343,14 17,14 C18.657,14 20,15.343 20,17 C20,18.657 18.657,20 17,20 Z M15,25 C15,23.343 16.343,22 18,22 C19.657,22 21,23.343 21,25 C21,26.657 19.657,28 18,28 C16.343,28 15,26.657 15,25 Z M32,45 C33.657,45 35,46.343 35,48 C35,49.657 33.657,51 32,51 C30.343,51 29,49.657 29,48 C29,46.343 30.343,45 32,45 Z M48,37 C49.657,37 51,38.343 51,40 C51,41.657 49.657,43 48,43 C46.343,43 45,41.657 45,40 C45,38.343 46.343,37 48,37 Z M44,45 C45.657,45 47,46.343 47,48 C47,49.657 45.657,51 44,51 C42.343,51 41,49.657 41,48 C41,46.343 42.343,45 44,45 Z M40.8443,36.0908 C40.9363,36.3788 41.0003,36.6808 41.0003,36.9998 C41.0003,38.6568 39.6573,39.9998 38.0003,39.9998 C36.3433,39.9998 35.0003,38.6568 35.0003,36.9998 C35.0003,35.3428 36.3433,33.9998 38.0003,33.9998 C38.9783,33.9998 39.8393,34.4758 40.3863,35.1998 L42.7553,34.1418 L43.1633,35.0538 L40.8443,36.0908 Z M36,22 C34.343,22 33,20.657 33,19 C33,17.343 34.343,16 36,16 C37.657,16 39,17.343 39,19 C39,20.657 37.657,22 36,22 Z M44,18 C42.343,18 41,16.657 41,15 C41,13.343 42.343,12 44,12 C45.657,12 47,13.343 47,15 C47,16.657 45.657,18 44,18 Z" id="path-3"></path>
    </defs>
    <g id="Page-1" stroke="none" stroke-width="1" fill="none" fill-rule="evenodd">
        <g id="wd-svm">
            <g>
                <g id="Group-3">
                    <mask id="mask-2" fill="white">
                        <use xlink:href="#path-1"></use>
                    </mask>
                    <g id="Clip-2"></g>
                    <path d="M64,50.8047 L64,13.1957 C64,5.9377 58.062,-0.0003 50.805,-0.0003 L13.195,-0.0003 C5.938,-0.0003 0,5.9377 0,13.1957 L0,50.8047 C0,58.0627 5.938,63.9997 13.195,63.9997 L50.805,63.9997 C58.062,63.9997 64,58.0627 64,50.8047" id="Fill-1" fill="#6DA8E4" mask="url(#mask-2)"></path>
                </g>
                <mask id="mask-4" fill="white">
                    <use xlink:href="#path-3"></use>
                </mask>
                <use id="Combined-Shape" fill="#000000" xlink:href="#path-3"></use>
                <g id="99.Color/State/Blue" mask="url(#mask-4)" fill="#FFF300">
                    <rect id="Rectangle-19-Copy-31" x="0" y="0" width="64" height="64"></rect>
                </g>
            </g>
        </g>
    </g>
</svg>