<?xml version="1.0" encoding="UTF-8"?>
<svg width="64px" height="64px" viewBox="0 0 64 64" version="1.1" xmlns="http://www.w3.org/2000/svg" xmlns:xlink="http://www.w3.org/1999/xlink">
    <!-- Generator: Sketch 47.1 (45422) - http://www.bohemiancoding.com/sketch -->
    <title>wd-tree</title>
    <desc>Created with Sketch.</desc>
    <defs>
        <polygon id="path-1" points="0 31.99985 0 0 64 0 64 31.99985 64 63.9997 0 63.9997"></polygon>
        <path d="M46,45 L50,45 L50,41 L46,41 L46,45 Z M30,21 C30,19.897 30.898,19 32,19 C33.103,19 34,19.897 34,21 C34,22.103 33.103,23 32,23 C30.898,23 30,22.103 30,21 L30,21 Z M30,45 L34,45 L34,41 L30,41 L30,45 Z M14,45 L18,45 L18,41 L14,41 L14,45 Z M49,38 L49,33 L49,31 L33,31 L33,25.899 C35.282,25.436 37,23.419 37,21 C37,18.238 34.762,16 32,16 C29.238,16 27,18.238 27,21 C27,23.419 28.718,25.436 31,25.899 L31,31 L15,31 L15,33 L15,38 L11,38 L11,48 L21,48 L21,38 L17,38 L17,33 L31,33 L31,38 L27,38 L27,48 L37,48 L37,38 L33,38 L33,33 L47,33 L47,38 L43,38 L43,48 L53,48 L53,38 L49,38 Z" id="path-3"></path>
    </defs>
    <g id="Page-1" stroke="none" stroke-width="1" fill="none" fill-rule="evenodd">
        <g id="wd-tree">
            <g>
                <g id="Group-3">
                    <mask id="mask-2" fill="white">
                        <use xlink:href="#path-1"></use>
                    </mask>
                    <g id="Clip-2"></g>
                    <path d="M64,50.8047 L64,13.1957 C64,5.9377 58.063,-0.0003 50.805,-0.0003 L13.195,-0.0003 C5.937,-0.0003 0,5.9377 0,13.1957 L0,50.8047 C0,58.0627 5.937,63.9997 13.195,63.9997 L50.805,63.9997 C58.063,63.9997 64,58.0627 64,50.8047" id="Fill-1" fill="#EAEAEA" mask="url(#mask-2)"></path>
                </g>
                <mask id="mask-4" fill="white">
                    <use xlink:href="#path-3"></use>
                </mask>
                <use id="Fill-4" fill="#000000" xlink:href="#path-3"></use>
                <g id="99.Color/State/Blue" mask="url(#mask-4)" fill="#0080D7">
                    <rect id="Rectangle-19-Copy-31" x="0" y="0" width="64" height="64"></rect>
                </g>
            </g>
        </g>
    </g>
</svg>